<svg xmlns="http://www.w3.org/2000/svg" xmlns:xlink="http://www.w3.org/1999/xlink" width="34.181" height="34.175" viewBox="0 0 34.181 34.175">
  <defs>
    <linearGradient id="linear-gradient" x1="0.5" x2="0.5" y2="1" gradientUnits="objectBoundingBox">
      <stop offset="0" stop-color="#9d0d71"/>
      <stop offset="1" stop-color="#300b55"/>
    </linearGradient>
  </defs>
  <g id="Group_8055" data-name="Group 8055" transform="translate(-10597 -1793)">
    <g id="contract" transform="translate(10597 1792.961)">
      <path id="Path_73879" data-name="Path 73879" d="M212.519,97.285a1.71,1.71,0,0,0-3.133-.41l-.285.5a.57.57,0,0,0-.775.205l-1.447,2.466-.5-.285a.569.569,0,1,0-.57.985l.5.285-4.841,8.39-1.2,3.2-.57,1.065a1.709,1.709,0,0,0,.091,1.846l-1.282,1.572-.359-.9a1.139,1.139,0,0,0-2.034-.16l-.2.347-.194-2.278a1.139,1.139,0,0,0-2.216-.268l-1.4,4.2a.569.569,0,0,0,.359.718.493.493,0,0,0,.177.045.57.57,0,0,0,.541-.387l1.4-4.2.2,2.312a1.139,1.139,0,0,0,2.113.49l.211-.348.353.894a1.139,1.139,0,0,0,1.948.29l1.327-1.68a1.753,1.753,0,0,0,.45.057,1.709,1.709,0,0,0,1.487-.843l.57-.951,2.17-2.637,4.893-8.493.5.285a.571.571,0,0,1,.211.78l-2.278,3.947a.566.566,0,1,0,.963.592l2.278-3.947a1.708,1.708,0,0,0-.627-2.335l-.5-.285,1.424-2.466a.57.57,0,0,0-.2-.775l.285-.5A1.708,1.708,0,0,0,212.519,97.285Zm-2.147.159a.57.57,0,0,1,.348-.268.6.6,0,0,1,.433.057.57.57,0,0,1,.268.347.6.6,0,0,1-.057.433l-.285.5-.991-.57Zm-7.763,15.9-.285-.165-.843-.49.809-2.164,1.794,1.037Zm-1.709,1.646a.569.569,0,0,1-.171-.746l.285-.5.991.57-.285.49a.569.569,0,0,1-.82.182Zm3.833-4.363-1.971-1.139,4.557-7.895,1.971,1.139Zm5.126-8.88-1.971-1.139,1.139-1.971L211,99.78Zm0,0" transform="translate(-178.401 -89.146)" fill="url(#linear-gradient)"/>
      <path id="Path_73880" data-name="Path 73880" d="M71.508,356.733l-2.016,2.011-1.208-1.208a.57.57,0,1,0-.8.809l1.208,1.208a1.148,1.148,0,0,0,1.612,0l2.01-2.016a.57.57,0,0,0-.8-.8Zm0,0" transform="translate(-62.52 -331.171)" fill="url(#linear-gradient)"/>
      <path id="Path_73881" data-name="Path 73881" d="M32,316.883a4.841,4.841,0,1,0,9.683,0,.57.57,0,0,0-1.139,0,3.7,3.7,0,1,1-1.481-2.962.57.57,0,0,0,.684-.911A4.841,4.841,0,0,0,32,316.883Zm0,0" transform="translate(-29.722 -289.788)" fill="url(#linear-gradient)"/>
      <path id="Path_73882" data-name="Path 73882" d="M87.379,49.178a.57.57,0,1,0,0-1.139H72.57a.57.57,0,0,0-.57.57v2.278a.569.569,0,0,0,.57.57H87.379a.57.57,0,0,0,0-1.139H73.139V49.178Zm0,0" transform="translate(-66.874 -44.583)" fill="url(#linear-gradient)"/>
      <path id="Path_73883" data-name="Path 73883" d="M96.57,112.039a.57.57,0,0,0,0,1.139h11.392a.57.57,0,1,0,0-1.139Zm0,0" transform="translate(-89.165 -104.026)" fill="url(#linear-gradient)"/>
      <path id="Path_73884" data-name="Path 73884" d="M141.1,168.039H128.57a.57.57,0,0,0,0,1.139H141.1a.57.57,0,1,0,0-1.139Zm0,0" transform="translate(-118.887 -156.039)" fill="url(#linear-gradient)"/>
      <path id="Path_73885" data-name="Path 73885" d="M68.531,216.609a.57.57,0,0,0-.57-.57H56.57a.57.57,0,1,0,0,1.139H67.961A.569.569,0,0,0,68.531,216.609Zm0,0" transform="translate(-52.013 -200.621)" fill="url(#linear-gradient)"/>
      <path id="Path_73886" data-name="Path 73886" d="M252.557,216.039H248.57a.57.57,0,1,0,0,1.139h3.987a.57.57,0,1,0,0-1.139Zm0,0" transform="translate(-230.343 -200.621)" fill="url(#linear-gradient)"/>
      <path id="Path_73887" data-name="Path 73887" d="M62.265,257.178a.57.57,0,1,0,0-1.139h-5.7a.57.57,0,0,0,0,1.139Zm0,0" transform="translate(-52.013 -237.773)" fill="url(#linear-gradient)"/>
      <path id="Path_73888" data-name="Path 73888" d="M168.57,257.178h3.987a.57.57,0,1,0,0-1.139H168.57a.57.57,0,0,0,0,1.139Zm0,0" transform="translate(-156.039 -237.773)" fill="url(#linear-gradient)"/>
      <path id="Path_73889" data-name="Path 73889" d="M25.631,26.24a.57.57,0,0,0-.57.57v5.7a.569.569,0,0,1-.57.57H1.709a.569.569,0,0,1-.57-.57V1.748a.57.57,0,0,1,.57-.57H24.492a.57.57,0,0,1,.57.57v10.7a.57.57,0,0,0,1.139,0V1.748A1.709,1.709,0,0,0,24.492.039H1.709A1.709,1.709,0,0,0,0,1.748V32.505a1.709,1.709,0,0,0,1.709,1.709H24.492A1.709,1.709,0,0,0,26.2,32.505v-5.7A.57.57,0,0,0,25.631,26.24Zm0,0" transform="translate(0 0)" fill="url(#linear-gradient)"/>
    </g>
  </g>
</svg>
