<svg xmlns="http://www.w3.org/2000/svg" xmlns:xlink="http://www.w3.org/1999/xlink" width="38.744" height="38.743" viewBox="0 0 38.744 38.743">
  <defs>
    <linearGradient id="linear-gradient" x1="0.5" x2="0.5" y2="1.773" gradientUnits="objectBoundingBox">
      <stop offset="0" stop-color="#9d0d71"/>
      <stop offset="1" stop-color="#300b55"/>
    </linearGradient>
  </defs>
  <path id="Union_1" data-name="Union 1" d="M-9551.777-240.256h-6.456v-1.293h5.812v-7.1h1.29v7.039a2.938,2.938,0,0,0,.692-.229,3.233,3.233,0,0,0,1.892-2.935v-2.583a4.522,4.522,0,0,0-1.979-3.735,4.461,4.461,0,0,0-2.541-.786h-5.165c-.114,0-.224.013-.334.021a5.856,5.856,0,0,1,.334,1.918v6.456a3.235,3.235,0,0,1-3.229,3.23h-1.937v-10.332h1.292v9.039h.645a1.936,1.936,0,0,0,1.938-1.937v-6.456a4.51,4.51,0,0,0-.53-2.123,4.6,4.6,0,0,0-1.447-1.614,1.857,1.857,0,0,0-.189-.12,4.5,4.5,0,0,0-2.354-.664h-5.165a4.52,4.52,0,0,0-4.521,4.52v6.456a1.937,1.937,0,0,0,1.937,1.937h.646v-9.039h1.291v10.332h-1.937a3.232,3.232,0,0,1-3.228-3.23v-6.456a5.732,5.732,0,0,1,.335-1.918c-.111-.008-.222-.021-.335-.021h-5.167a4.48,4.48,0,0,0-2.54.784,4.529,4.529,0,0,0-1.98,3.736v2.583a3.233,3.233,0,0,0,1.88,2.93,3.082,3.082,0,0,0,.7.235v-7.039h1.293v7.1h5.812v1.293h-6.458a4.393,4.393,0,0,1-1.891-.417,4.53,4.53,0,0,1-2.63-4.1v-2.583a5.814,5.814,0,0,1,2.544-4.8,5.746,5.746,0,0,1,3.268-1.01h5.167a5.729,5.729,0,0,1,.938.086,5.75,5.75,0,0,1,4.873-2.669h5.165a5.788,5.788,0,0,1,3,.834,2.382,2.382,0,0,1,.3.2,5.8,5.8,0,0,1,1.584,1.641,5.676,5.676,0,0,1,.937-.086h5.165a5.746,5.746,0,0,1,3.271,1.012,5.807,5.807,0,0,1,2.54,4.8v2.583a4.525,4.525,0,0,1-2.642,4.107,4.363,4.363,0,0,1-1.854.413Zm-17.434,0v-1.293h5.165v1.293Zm9.687-17.436a3.875,3.875,0,0,1,3.874-3.874,3.874,3.874,0,0,1,3.875,3.874,3.879,3.879,0,0,1-3.875,3.874A3.875,3.875,0,0,1-9559.524-257.692Zm1.291,0a2.584,2.584,0,0,0,2.583,2.583,2.582,2.582,0,0,0,2.582-2.583,2.581,2.581,0,0,0-2.582-2.581A2.582,2.582,0,0,0-9558.233-257.692Zm-23.247,0a3.875,3.875,0,0,1,3.874-3.874,3.874,3.874,0,0,1,3.875,3.874,3.877,3.877,0,0,1-3.875,3.874A3.875,3.875,0,0,1-9581.48-257.692Zm1.291,0a2.583,2.583,0,0,0,2.583,2.583,2.584,2.584,0,0,0,2.584-2.583,2.582,2.582,0,0,0-2.584-2.581A2.582,2.582,0,0,0-9580.189-257.692Zm9.688-2.581a3.876,3.876,0,0,1,3.874-3.876,3.876,3.876,0,0,1,3.874,3.876,3.879,3.879,0,0,1-3.874,3.874A3.875,3.875,0,0,1-9570.5-260.273Zm1.291,0a2.582,2.582,0,0,0,2.583,2.581,2.581,2.581,0,0,0,2.582-2.581,2.582,2.582,0,0,0-2.582-2.583A2.583,2.583,0,0,0-9569.211-260.273Zm18.079,1.291a.645.645,0,0,0,.646-.646V-263.5a.646.646,0,0,0-.646-.646h-3.485l-.126-.484a12,12,0,0,0-1.315-3.155l-.261-.432,2.477-2.48a.643.643,0,0,0,0-.9l-2.742-2.746a.656.656,0,0,0-.9,0l-2.48,2.48-.433-.258a11.894,11.894,0,0,0-3.158-1.318l-.485-.126v-3.49a.645.645,0,0,0-.645-.646h-3.874a.645.645,0,0,0-.646.646v3.486l-.486.126a11.99,11.99,0,0,0-3.155,1.316l-.43.258-2.48-2.474a.657.657,0,0,0-.908,0l-2.742,2.742a.648.648,0,0,0-.189.455.643.643,0,0,0,.189.453l2.48,2.48-.258.432a11.88,11.88,0,0,0-1.318,3.155l-.126.484h-3.489a.646.646,0,0,0-.646.646v3.874a.645.645,0,0,0,.646.646v1.291a1.937,1.937,0,0,1-1.939-1.937V-263.5a1.939,1.939,0,0,1,1.939-1.937h2.5a13,13,0,0,1,1.075-2.572l-1.777-1.775a1.932,1.932,0,0,1-.565-1.367,1.925,1.925,0,0,1,.565-1.367l2.744-2.744a1.976,1.976,0,0,1,2.734,0l1.777,1.775a13.173,13.173,0,0,1,2.571-1.073v-2.5a1.936,1.936,0,0,1,1.938-1.937h3.874a1.937,1.937,0,0,1,1.937,1.937v2.5a13.157,13.157,0,0,1,2.572,1.073l1.774-1.775a1.979,1.979,0,0,1,2.736,0l2.742,2.742a1.934,1.934,0,0,1,.567,1.367,1.927,1.927,0,0,1-.567,1.367l-1.774,1.776a13.3,13.3,0,0,1,1.074,2.572h2.5a1.937,1.937,0,0,1,1.938,1.937v3.874a1.936,1.936,0,0,1-1.937,1.937Zm-7.748-2.583a7.747,7.747,0,0,0-7.748-7.748,7.748,7.748,0,0,0-7.748,7.748h-1.293a9.04,9.04,0,0,1,9.041-9.039,9.039,9.039,0,0,1,9.039,9.039Z" transform="translate(9586.001 278.999)" fill="url(#linear-gradient)"/>
</svg>
