<svg xmlns="http://www.w3.org/2000/svg" width="9.701" height="10.779" viewBox="0 0 9.701 10.779">
  <path id="Date" d="M6.894,0A.384.384,0,0,1,7.25.4h0V.954A2.415,2.415,0,0,1,9.7,3.619h0V8.076c0,1.792-1.022,2.7-3.032,2.7H3.032C1.022,10.779,0,9.869,0,8.076H0V3.619A2.448,2.448,0,0,1,1.115,1.331h0l.053-.03a.369.369,0,0,1,.342.015A.384.384,0,0,1,1.472,2,1.694,1.694,0,0,0,.74,3.619h0v.143H7.578a.377.377,0,0,1,0,.753H.74V8.076c0,1.368.665,1.935,2.292,1.945H6.669c1.6,0,2.287-.582,2.287-1.95h0V3.614A1.673,1.673,0,0,0,7.25,1.707h0v.362A.374.374,0,0,1,6.5,2.041h0V.363L6.512.3A.378.378,0,0,1,6.625.1.367.367,0,0,1,6.894,0Zm.213,7.651.06,0a.466.466,0,0,1,.272.134.481.481,0,0,1,.139.339.469.469,0,1,1-.469-.477Zm-2.247,0,.059,0a.469.469,0,1,1-.059,0Zm-2.247,0,.06,0a.466.466,0,0,1,.272.134.481.481,0,0,1,.139.339.469.469,0,1,1-.469-.477ZM7.107,5.721l.06,0a.466.466,0,0,1,.272.134.481.481,0,0,1,.139.339.469.469,0,1,1-.469-.477Zm-2.247,0,.059,0a.469.469,0,1,1-.059,0Zm-2.247,0,.06,0a.466.466,0,0,1,.272.134.481.481,0,0,1,.139.339.469.469,0,1,1-.469-.477ZM2.824.057A.377.377,0,0,1,3.2.4h0v.52H5.315a.377.377,0,0,1,0,.753H3.187v.377a.38.38,0,0,1-.11.268.367.367,0,0,1-.265.109h0l-.054-.005a.375.375,0,0,1-.307-.376h0V.4L2.462.34A.376.376,0,0,1,2.824.057Z" fill="#300b55"/>
</svg>
