<svg xmlns="http://www.w3.org/2000/svg" width="10.929" height="10.929" viewBox="0 0 10.929 10.929">
  <g id="Tag" transform="translate(-10.186 -9.169)">
    <path id="Path_73963" data-name="Path 73963" d="M15.21,9.269a.341.341,0,0,0-.241-.1H10.543a.342.342,0,0,0-.342.34l-.016,4.442a.341.341,0,0,0,.1.243l5.8,5.8a.341.341,0,0,0,.483,0l4.441-4.441a.341.341,0,0,0,0-.483Zm1.122,10L10.87,13.811l.014-3.959h3.944l5.463,5.463Z" fill="#9d0e71"/>
    <circle id="Ellipse_88" data-name="Ellipse 88" cx="0.891" cy="0.891" r="0.891" transform="translate(12.77 11.753)" fill="#9d0e71"/>
  </g>
</svg>
