<svg xmlns="http://www.w3.org/2000/svg" width="23.916" height="23.916" viewBox="0 0 23.916 23.916">
  <g id="Group_8096" data-name="Group 8096" transform="translate(0)">
    <g id="Group_7978" data-name="Group 7978" transform="translate(0)">
      <path id="Path_73804" data-name="Path 73804" d="M25.836,13.135a.5.5,0,1,0-.681.721l4.079,3.853-4.079,3.853a.5.5,0,1,0,.681.721L30.3,18.069a.5.5,0,0,0,0-.721l-4.461-4.213Z" transform="translate(-15.802 -6.254)" fill="#9d0e71"/>
      <path id="Path_73805" data-name="Path 73805" d="M11.958,0A11.957,11.957,0,0,0,3.5,20.413,11.957,11.957,0,1,0,20.413,3.5,11.877,11.877,0,0,0,11.958,0Zm7.4,19.356A10.462,10.462,0,1,1,4.56,4.56a10.462,10.462,0,1,1,14.8,14.8Z" transform="translate(0 0)" fill="#9d0e71"/>
    </g>
  </g>
</svg>
