<svg xmlns="http://www.w3.org/2000/svg" width="39" height="39" viewBox="0 0 39 39">
  <g id="Group_7977" data-name="Group 7977" transform="translate(-0.5 -0.5)" opacity="0.625">
    <g id="Group_7978" data-name="Group 7978">
      <path id="Path_73804" data-name="Path 73804" d="M26.363,13.221a.808.808,0,1,0-1.11,1.175l6.652,6.283-6.652,6.283a.808.808,0,1,0,1.11,1.175l7.275-6.87a.809.809,0,0,0,0-1.175l-7.275-6.87Z" transform="translate(-9.5 -1.5)" fill="#fff"/>
      <path id="Path_73805" data-name="Path 73805" d="M19.5,0A19.5,19.5,0,0,0,5.712,33.288,19.5,19.5,0,1,0,33.288,5.712,19.368,19.368,0,0,0,19.5,0ZM31.564,31.564A17.061,17.061,0,1,1,7.436,7.436,17.061,17.061,0,1,1,31.564,31.564Z" transform="translate(0.5 0.5)" fill="#fff"/>
    </g>
  </g>
</svg>
