<svg id="Group_2635" data-name="Group 2635" xmlns="http://www.w3.org/2000/svg" width="18.528" height="18.528" viewBox="0 0 18.528 18.528">
  <path id="Path_8377" data-name="Path 8377" d="M103.978,364.45c2.474,0,2.767.009,3.744.054a5.115,5.115,0,0,1,1.72.318,3.071,3.071,0,0,1,1.758,1.758,5.135,5.135,0,0,1,.318,1.721c.045.976.054,1.27.054,3.743s-.009,2.767-.054,3.744a5.135,5.135,0,0,1-.318,1.721,3.067,3.067,0,0,1-1.758,1.758,5.13,5.13,0,0,1-1.72.319c-.977.045-1.27.054-3.744.054s-2.767-.009-3.744-.054a5.125,5.125,0,0,1-1.72-.319,3.062,3.062,0,0,1-1.758-1.758,5.13,5.13,0,0,1-.319-1.721c-.044-.977-.054-1.27-.054-3.744s.01-2.767.054-3.743a5.13,5.13,0,0,1,.319-1.721,3.066,3.066,0,0,1,1.758-1.758,5.111,5.111,0,0,1,1.72-.318c.977-.045,1.27-.054,3.744-.054m0-1.669c-2.516,0-2.832.011-3.82.056a6.82,6.82,0,0,0-2.249.431,4.734,4.734,0,0,0-2.71,2.71,6.8,6.8,0,0,0-.43,2.249c-.045.988-.056,1.3-.056,3.819s.011,2.832.056,3.82a6.8,6.8,0,0,0,.43,2.249,4.739,4.739,0,0,0,2.71,2.71,6.8,6.8,0,0,0,2.249.43c.988.046,1.3.056,3.82.056s2.832-.01,3.82-.056a6.807,6.807,0,0,0,2.249-.43,4.735,4.735,0,0,0,2.709-2.71,6.784,6.784,0,0,0,.431-2.249c.045-.988.056-1.3.056-3.82s-.011-2.832-.056-3.819a6.784,6.784,0,0,0-.431-2.249,4.73,4.73,0,0,0-2.709-2.71,6.824,6.824,0,0,0-2.249-.431c-.988-.045-1.3-.056-3.82-.056" transform="translate(-94.714 -362.781)" fill="#fff"/>
  <path id="Path_8378" data-name="Path 8378" d="M105.8,369.107a4.757,4.757,0,1,0,4.757,4.757,4.757,4.757,0,0,0-4.757-4.757m0,7.845a3.088,3.088,0,1,1,3.088-3.088,3.088,3.088,0,0,1-3.088,3.088" transform="translate(-96.532 -364.6)" fill="#fff"/>
  <path id="Path_8379" data-name="Path 8379" d="M115.32,368.394a1.112,1.112,0,1,1-1.112-1.112,1.112,1.112,0,0,1,1.112,1.112" transform="translate(-99.999 -364.075)" fill="#fff"/>
</svg>
