<svg id="Group_9664" data-name="Group 9664" xmlns="http://www.w3.org/2000/svg" width="89.216" height="96.868" viewBox="0 0 89.216 96.868">
  <path id="Path_604" data-name="Path 604" d="M0,48.392c5.989,5.851,13.849,12.723,20.557,19.58,6.968,7.121,12.7,14.143,13.807,15.483a27.419,27.419,0,0,1,5.749,12.974l.482.439L89.216,48.483c-6.514-6.36-15.228-14.117-22.28-21.344-6.171-6.332-11.065-12.5-12.083-13.728A27.409,27.409,0,0,1,49.1.44S48.621,0,48.621,0ZM60.937,32.138C67.924,39.2,74.745,45.61,77.6,48.4c0,0-27.685,28.338-34.418,35.014-.115-.071-.095-.027-.119-.1a12.845,12.845,0,0,0-2-3.746A187.353,187.353,0,0,0,26.642,63.147c-6.533-6.581-12.375-12.184-15.015-14.763,27.919-27.866,27.068-27.845,34.184-34.9.125.092.1.023.125.1a12.363,12.363,0,0,0,2,3.659,164.3,164.3,0,0,0,13,14.9" transform="translate(0 0)" fill="#300b55"/>
  <path id="Path_605" data-name="Path 605" d="M16.335.04C15.7.353,12.3.564,8.207.564S.682.32.038,0C.353.641.564,4.032.564,8.127S.321,15.659,0,16.3c.639-.313,4.033-.528,8.126-.528s7.528.243,8.17.563c-.311-.636-.524-4.033-.524-8.126S16.016.68,16.335.04" transform="translate(36.742 40.115)" fill="#9d0371"/>
</svg>
