<svg id="Group_308" data-name="Group 308" xmlns="http://www.w3.org/2000/svg" xmlns:xlink="http://www.w3.org/1999/xlink" width="121.5" height="59.516" viewBox="0 0 121.5 59.516">
  <defs>
    <clipPath id="clip-path">
      <rect id="Rectangle_451" data-name="Rectangle 451" width="121.5" height="59.516" fill="none"/>
    </clipPath>
  </defs>
  <g id="Group_307" data-name="Group 307" clip-path="url(#clip-path)">
    <path id="Path_604" data-name="Path 604" d="M214.124,29.731c3.68,3.595,8.509,7.817,12.631,12.03,4.281,4.375,7.8,8.689,8.483,9.513a16.846,16.846,0,0,1,3.532,7.971l.3.27,29.873-29.728c-4-3.908-9.356-8.673-13.689-13.114-3.792-3.89-6.8-7.679-7.424-8.435A16.841,16.841,0,0,1,244.294.269S244,0,244,0Zm37.44-9.986c4.292,4.34,8.484,8.277,10.238,9.989,0,0-17.01,17.411-21.146,21.513-.07-.044-.058-.017-.073-.063a7.892,7.892,0,0,0-1.228-2.3A115.11,115.11,0,0,0,230.493,38.8c-4.014-4.044-7.6-7.486-9.225-9.07,17.153-17.121,16.631-17.108,21-21.443.077.057.06.014.077.062a7.6,7.6,0,0,0,1.228,2.248,100.953,100.953,0,0,0,7.989,9.152" transform="translate(-147.439 0.001)" fill="#300b55"/>
    <path id="Path_605" data-name="Path 605" d="M296.645,79.165a22.911,22.911,0,0,1-4.994.322,22.307,22.307,0,0,1-5.019-.346,22.82,22.82,0,0,1,.323,4.993,22.234,22.234,0,0,1-.347,5.021,22.873,22.873,0,0,1,4.993-.324,22.344,22.344,0,0,1,5.02.346,23.007,23.007,0,0,1-.322-4.993,22.353,22.353,0,0,1,.346-5.018" transform="translate(-197.349 -54.494)" fill="#9d0371"/>
    <path id="Path_606" data-name="Path 606" d="M193.966,11.033H191.32V31.5l2.645-1.466Z" transform="translate(-131.737 -7.597)" fill="#695444"/>
    <path id="Path_607" data-name="Path 607" d="M133.334,9.7a1.547,1.547,0,0,0-1.548-1.547,1.567,1.567,0,1,0,0,3.132A1.554,1.554,0,0,0,133.334,9.7" transform="translate(-89.622 -5.613)" fill="#695444"/>
    <path id="Path_608" data-name="Path 608" d="M66.645,86.315a1.567,1.567,0,1,0-3.133,0,1.567,1.567,0,1,0,3.133,0" transform="translate(-43.732 -58.339)" fill="#695444"/>
    <path id="Path_609" data-name="Path 609" d="M53.748,86.315a1.619,1.619,0,0,0-1.587-1.589,1.592,1.592,0,0,0-1.59,1.589,1.566,1.566,0,0,0,1.59,1.587,1.591,1.591,0,0,0,1.587-1.587" transform="translate(-34.822 -58.339)" fill="#695444"/>
    <path id="Path_610" data-name="Path 610" d="M37.078,28.667v9.117c0,1.18-.611,1.79-1.913,1.79h-4.6V28.667H27.961V42.546c0,2.524-.569,3.579-3.256,4.435L26.534,49.3a6.137,6.137,0,0,0,4.033-5.941V42.179h4.391c2.564,0,4.724-1.3,4.724-4.519V28.667Z" transform="translate(-17.011 -19.739)" fill="#695444"/>
    <path id="Path_611" data-name="Path 611" d="M97.954,26.05a30.5,30.5,0,0,0-3.947-3.99,4.014,4.014,0,0,1,7.814,0,27.512,27.512,0,0,0-3.866,3.99m11.031-15.017V25.438c0,1.547-.655,1.994-2.078,1.994H100.15a27.152,27.152,0,0,1,4.314-4.07c.166-4.518-2.929-7-6.551-7-3.662,0-6.716,2.443-6.51,7a31.139,31.139,0,0,1,4.272,4.07H86.883V16.525h-2.6v13.88c0,2.524-.572,3.578-3.256,4.435l1.832,2.32a6.138,6.138,0,0,0,4.029-5.941V30.038h8.791a3.951,3.951,0,0,0,2.279-.774,3.72,3.72,0,0,0,2.239.774h6.8c3.215,0,4.6-1.829,4.6-4.4V11.033Z" transform="translate(-55.789 -7.597)" fill="#695444"/>
    <path id="Path_612" data-name="Path 612" d="M6.668,114.541l-1.594-3.578L3.6,114.541ZM4.59,108.792h.994l4.43,9.935H8.566L7.249,115.8H3.035L1.8,118.727H.347Z" transform="translate(-0.239 -74.91)" fill="#695444"/>
    <rect id="Rectangle_450" data-name="Rectangle 450" width="1.287" height="9.878" transform="translate(10.708 33.938)" fill="#695444"/>
    <path id="Path_613" data-name="Path 613" d="M62.532,113.7h3.316v4.187a9.035,9.035,0,0,1-3.62.792,5.373,5.373,0,0,1-3.921-1.432,4.739,4.739,0,0,1-1.467-3.532,4.911,4.911,0,0,1,1.52-3.684,5.262,5.262,0,0,1,3.811-1.471,6.756,6.756,0,0,1,1.584.18,13.049,13.049,0,0,1,1.9.661v1.443a6.947,6.947,0,0,0-3.507-1.026,3.723,3.723,0,0,0-2.729,1.1,3.909,3.909,0,0,0,0,5.459,3.949,3.949,0,0,0,2.857,1.068,6.657,6.657,0,0,0,2.029-.389l.134-.043v-2.057h-1.9Z" transform="translate(-39.138 -74.753)" fill="#695444"/>
    <path id="Path_614" data-name="Path 614" d="M91.737,108.972h1.287V113.2a2.489,2.489,0,0,1,2-.983,2.145,2.145,0,0,1,1.167.325,1.974,1.974,0,0,1,.767.9,4.445,4.445,0,0,1,.251,1.7v3.7H95.923v-4.023a1.777,1.777,0,0,0-.35-1.149,1.127,1.127,0,0,0-.923-.435,1.556,1.556,0,0,0-.8.22,3.628,3.628,0,0,0-.827.728v4.659H91.737Z" transform="translate(-63.167 -75.034)" fill="#695444"/>
    <path id="Path_615" data-name="Path 615" d="M119.16,126.309v-.834a3.006,3.006,0,0,1-.937.7,2.439,2.439,0,0,1-1.05.249,2.185,2.185,0,0,1-1.135-.307,2,2,0,0,1-.785-.834,4.186,4.186,0,0,1-.265-1.751V119.8h1.287v3.708a2.554,2.554,0,0,0,.293,1.43,1.184,1.184,0,0,0,1.029.406,1.882,1.882,0,0,0,1.563-.9V119.8h1.287v6.505Z" transform="translate(-79.177 -82.493)" fill="#695444"/>
    <path id="Path_616" data-name="Path 616" d="M139.9,119.523v1.492l.071-.113q.933-1.507,1.866-1.506a2.3,2.3,0,0,1,1.52.735l-.679,1.131a1.907,1.907,0,0,0-1.244-.636,1.333,1.333,0,0,0-1.079.594,2.244,2.244,0,0,0-.456,1.407v3.4H138.6v-6.505Z" transform="translate(-95.437 -82.212)" fill="#695444"/>
    <path id="Path_617" data-name="Path 617" d="M158.41,124.741V122.81l-.863.333a2.9,2.9,0,0,0-.93.527.952.952,0,0,0-.014,1.318.909.909,0,0,0,.668.255,1.618,1.618,0,0,0,1.139-.5m1.266-2.624v2.765q0,.333.226.333a1.568,1.568,0,0,0,.729-.346v.785a4.227,4.227,0,0,1-.7.386,1.525,1.525,0,0,1-.555.1q-.827,0-.976-.65a2.8,2.8,0,0,1-1.747.636,1.541,1.541,0,0,1-1.131-.448,1.524,1.524,0,0,1-.453-1.128,1.585,1.585,0,0,1,.442-1.1,2.98,2.98,0,0,1,1.255-.767l1.648-.566v-.347a1.037,1.037,0,0,0-1.174-1.173,2.826,2.826,0,0,0-2.051,1.088v-1.407a2.672,2.672,0,0,1,2.157-.884,2.491,2.491,0,0,1,1.69.551,1.741,1.741,0,0,1,.382.471,1.7,1.7,0,0,1,.216.587,8.706,8.706,0,0,1,.046,1.114" transform="translate(-106.773 -82.211)" fill="#695444"/>
    <path id="Path_618" data-name="Path 618" d="M176.43,113.754h1.287v6.505H176.43Zm.636-2.736a.757.757,0,0,1,.545.219.718.718,0,0,1,.226.537.735.735,0,0,1-.226.538.743.743,0,0,1-.545.226.714.714,0,0,1-.523-.23.737.737,0,0,1-.226-.534.729.729,0,0,1,.226-.526.712.712,0,0,1,.523-.23" transform="translate(-121.406 -76.443)" fill="#695444"/>
    <path id="Path_619" data-name="Path 619" d="M188.351,119.523v1.492l.071-.113q.933-1.507,1.866-1.506a2.3,2.3,0,0,1,1.52.735l-.679,1.131a1.906,1.906,0,0,0-1.244-.636,1.333,1.333,0,0,0-1.079.594,2.244,2.244,0,0,0-.456,1.407v3.4h-1.294v-6.505Z" transform="translate(-128.801 -82.212)" fill="#695444"/>
    <path id="Path_620" data-name="Path 620" d="M4.846,110.988l-1.4,3.326H6.327ZM3.23,114.457l1.612-3.829,1.7,3.829Zm1.169-5.75L.216,118.5H1.509l1.245-2.926H7.047L8.366,118.5H9.658l-4.368-9.791ZM0,118.642l.043-.1L4.3,108.564H5.383l.019.042,4.476,10.036h-1.6l-1.318-2.925H2.849L1.6,118.642Z" transform="translate(0 -74.753)" fill="#695444"/>
    <path id="Path_621" data-name="Path 621" d="M34.3,118.627h1.145v-9.734H34.3Zm-.144-9.877h1.432v10.02H34.156Z" transform="translate(-23.519 -74.882)" fill="#695444"/>
    <path id="Path_622" data-name="Path 622" d="M65.421,109.245a14.319,14.319,0,0,0-1.843-.644,6.826,6.826,0,0,0-1.561-.171,5.2,5.2,0,0,0-3.758,1.456,4.891,4.891,0,0,0-1.5,3.642A4.72,4.72,0,0,0,58.2,117.01a5.351,5.351,0,0,0,3.875,1.413,8.75,8.75,0,0,0,3.549-.772v-4.067H62.451V114.7h1.9v2.18l-.179.059a6.736,6.736,0,0,1-2.05.395,3.983,3.983,0,0,1-2.9-1.091,3.733,3.733,0,0,1-1.138-2.8,3.788,3.788,0,0,1,1.136-2.773,3.735,3.735,0,0,1,2.773-1.122,6.992,6.992,0,0,1,3.433.977Zm-8.805,4.283a5.027,5.027,0,0,1,1.543-3.745,5.342,5.342,0,0,1,3.858-1.5,6.955,6.955,0,0,1,1.6.176,14.548,14.548,0,0,1,1.908.669l.044.018v1.62l-.107-.062a6.91,6.91,0,0,0-3.469-1.019,3.6,3.6,0,0,0-2.671,1.08,3.65,3.65,0,0,0-1.094,2.672,3.6,3.6,0,0,0,1.093,2.7,3.845,3.845,0,0,0,2.8,1.051,6.593,6.593,0,0,0,2.005-.388l.08-.027v-1.933h-1.9v-1.4h3.46v4.3l-.043.019a9.047,9.047,0,0,1-3.65.8,5.49,5.49,0,0,1-3.975-1.454,4.859,4.859,0,0,1-1.485-3.585" transform="translate(-38.984 -74.562)" fill="#695444"/>
    <path id="Path_623" data-name="Path 623" d="M91.636,108.893v9.734h1.145v-4.634l.019-.021a3.9,3.9,0,0,1,.842-.737,1.653,1.653,0,0,1,.833-.227,1.184,1.184,0,0,1,.983.462,1.878,1.878,0,0,1,.363,1.2v3.955h1.146V114.99a4.535,4.535,0,0,0-.24-1.681,1.952,1.952,0,0,0-.741-.866,2.109,2.109,0,0,0-1.134-.321,2.436,2.436,0,0,0-1.944.959l-.126.154v-4.342Zm-.143,9.877v-10.02h1.432v4.1a2.537,2.537,0,0,1,1.927-.865,2.251,2.251,0,0,1,1.211.344,2.094,2.094,0,0,1,.795.93,4.652,4.652,0,0,1,.253,1.737v3.779H95.678v-4.1a1.743,1.743,0,0,0-.331-1.113,1.049,1.049,0,0,0-.871-.408,1.508,1.508,0,0,0-.761.207,3.689,3.689,0,0,0-.79.69v4.722Z" transform="translate(-62.999 -74.881)" fill="#695444"/>
    <path id="Path_624" data-name="Path 624" d="M114.9,119.727v3.651a4.189,4.189,0,0,0,.254,1.72,2.047,2.047,0,0,0,.768.81,2.148,2.148,0,0,0,1.094.294,2.43,2.43,0,0,0,1.027-.239,3.318,3.318,0,0,0,.921-.68l.123-.13v.932h1.145v-6.359h-1.145v4.6l-.014.019a1.984,1.984,0,0,1-1.623.928,1.268,1.268,0,0,1-1.1-.434,2.727,2.727,0,0,1-.3-1.477v-3.636Zm-.143,3.651v-3.794h1.433v3.78a2.6,2.6,0,0,0,.276,1.394,1.138,1.138,0,0,0,.984.374,1.84,1.84,0,0,0,1.493-.85v-4.7h1.432v6.647h-1.432V125.5a3.443,3.443,0,0,1-.838.587,2.575,2.575,0,0,1-1.089.254,2.281,2.281,0,0,1-1.166-.314,2.19,2.19,0,0,1-.823-.867,4.23,4.23,0,0,1-.27-1.786" transform="translate(-79.018 -82.341)" fill="#695444"/>
    <path id="Path_625" data-name="Path 625" d="M138.523,119.409v6.36h1.145v-3.332a2.352,2.352,0,0,1,.478-1.462,1.4,1.4,0,0,1,1.129-.623,1.933,1.933,0,0,1,1.229.6l.606-1a2.2,2.2,0,0,0-1.429-.68c-.591,0-1.2.5-1.808,1.472l-.2.328v-1.655Zm-.143,6.5v-6.646h1.432v1.3c.617-.959,1.246-1.445,1.869-1.445a2.38,2.38,0,0,1,1.57.758l.042.04-.756,1.255-.064-.061a1.878,1.878,0,0,0-1.2-.618,1.261,1.261,0,0,0-1.015.566,2.212,2.212,0,0,0-.448,1.375v3.475Z" transform="translate(-95.284 -82.023)" fill="#695444"/>
    <path id="Path_626" data-name="Path 626" d="M158.186,122.714l-.771.3a2.559,2.559,0,0,0-.9.517.874.874,0,0,0-.018,1.217.829.829,0,0,0,.618.241,1.533,1.533,0,0,0,1.072-.466Zm-2.071,1.431a.923.923,0,0,1,.3-.718,2.628,2.628,0,0,1,.948-.55l.967-.371v2.076l-.022.021a1.684,1.684,0,0,1-1.193.527.965.965,0,0,1-.717-.281.939.939,0,0,1-.282-.7m2.215-2.578v.4l-1.7.581a2.934,2.934,0,0,0-1.216.748,1.523,1.523,0,0,0-.43,1.067,1.449,1.449,0,0,0,.428,1.079,1.469,1.469,0,0,0,1.093.428,2.755,2.755,0,0,0,1.709-.623l.087-.067.026.107c.095.392.39.583.9.583a1.369,1.369,0,0,0,.523-.1,3.21,3.21,0,0,0,.651-.349v-.6a1.473,1.473,0,0,1-.652.274c-.139,0-.3-.07-.3-.4V121.93a9.714,9.714,0,0,0-.042-1.119,1.514,1.514,0,0,0-.207-.553,1.8,1.8,0,0,0-.363-.461,2.5,2.5,0,0,0-1.647-.532,2.6,2.6,0,0,0-2.086.838v1.2a2.778,2.778,0,0,1,1.985-.979,1.1,1.1,0,0,1,1.245,1.245m-3.489,2.8a1.661,1.661,0,0,1,.468-1.163,3.065,3.065,0,0,1,1.274-.787l1.6-.548v-.3a.968.968,0,0,0-1.1-1.1,2.75,2.75,0,0,0-2,1.063l-.124.135v-1.614l.017-.02a2.726,2.726,0,0,1,2.212-.908,2.638,2.638,0,0,1,1.74.566,1.949,1.949,0,0,1,.393.5,1.645,1.645,0,0,1,.226.6h0a9.875,9.875,0,0,1,.043,1.14V124.7c0,.261.109.261.161.261a1.561,1.561,0,0,0,.685-.321l.111-.072v.938l-.032.021a3.458,3.458,0,0,1-.712.385,1.509,1.509,0,0,1-.573.1.941.941,0,0,1-1.01-.591,2.858,2.858,0,0,1-1.713.591,1.608,1.608,0,0,1-1.664-1.651" transform="translate(-106.618 -82.023)" fill="#695444"/>
    <path id="Path_627" data-name="Path 627" d="M176.352,120.037H177.5v-6.359h-1.145Zm-.143-6.5h1.432v6.646h-1.432Zm1.4-1.913a.633.633,0,0,0-.208-.483.672.672,0,0,0-.488-.2.6.6,0,0,0-.468.208l0,0a.625.625,0,0,0-.208.468.632.632,0,0,0,.208.483.606.606,0,0,0,.473.213.633.633,0,0,0,.483-.208.614.614,0,0,0,.213-.488m-1.52,0a.765.765,0,0,1,.253-.572.745.745,0,0,1,.572-.253.811.811,0,0,1,.587.238.769.769,0,0,1,.253.586.75.75,0,0,1-.255.588.765.765,0,0,1-.584.251.747.747,0,0,1-.574-.255.765.765,0,0,1-.25-.584" transform="translate(-121.252 -76.291)" fill="#695444"/>
    <path id="Path_628" data-name="Path 628" d="M186.978,119.409v6.36h1.145v-3.332a2.349,2.349,0,0,1,.478-1.462,1.394,1.394,0,0,1,1.129-.623,1.932,1.932,0,0,1,1.229.6l.606-1.005a2.2,2.2,0,0,0-1.429-.68c-.591,0-1.2.5-1.808,1.472l-.2.327v-1.654Zm-.143,6.5v-6.646h1.432v1.3c.617-.959,1.245-1.446,1.869-1.446a2.38,2.38,0,0,1,1.57.758l.042.04-.756,1.255-.064-.061a1.88,1.88,0,0,0-1.2-.618,1.26,1.26,0,0,0-1.015.566,2.211,2.211,0,0,0-.449,1.375v3.475Z" transform="translate(-128.648 -82.023)" fill="#695444"/>
  </g>
</svg>
