<svg xmlns="http://www.w3.org/2000/svg" xmlns:xlink="http://www.w3.org/1999/xlink" width="33.749" height="33.909" viewBox="0 0 33.749 33.909">
  <defs>
    <linearGradient id="linear-gradient" x1="0.5" x2="0.5" y2="1" gradientUnits="objectBoundingBox">
      <stop offset="0" stop-color="#9d0d71"/>
      <stop offset="1" stop-color="#300b55"/>
    </linearGradient>
  </defs>
  <g id="healthcare-covid19-coronavirus-hand-hearth" transform="translate(-2.24 -2.199)">
    <path id="Path_73875" data-name="Path 73875" d="M32.371,11.268h-1.7v-1.7A.567.567,0,0,0,30.1,9H27.835a.567.567,0,0,0-.567.567v1.7h-1.7a.567.567,0,0,0-.567.567V14.1a.567.567,0,0,0,.567.567h1.7v1.7a.567.567,0,0,0,.567.567H30.1a.567.567,0,0,0,.567-.567v-1.7h1.7a.567.567,0,0,0,.567-.567V11.835A.567.567,0,0,0,32.371,11.268ZM31.8,13.536H30.1a.567.567,0,0,0-.567.567v1.7H28.4V14.1a.567.567,0,0,0-.567-.567h-1.7V12.4h1.7a.567.567,0,0,0,.567-.567v-1.7h1.134v1.7a.567.567,0,0,0,.567.567h1.7Z" transform="translate(-9.855 -2.945)" fill="url(#linear-gradient)"/>
    <path id="Path_73876" data-name="Path 73876" d="M48.156,16.406a2.6,2.6,0,0,0,.017-.3,2.279,2.279,0,0,0-1.8-2.217,2.308,2.308,0,0,0-2.665,1.684L41.21,22.751a.925.925,0,0,0-.108.051L36.09,25.739a5.113,5.113,0,0,0-2.523,4.4v5.341a.567.567,0,0,0-.567.567v4.536a.567.567,0,0,0,.567.567h7.938a.567.567,0,0,0,.567-.567V36.048a.567.567,0,0,0-.567-.567V34.233a1.723,1.723,0,0,1,.567-1.27l3.833-3.408a2.8,2.8,0,0,0,.862-1.389l2.461-9.2a2.242,2.242,0,0,0,.079-.59,2.279,2.279,0,0,0-1.151-1.968Zm-3.368-.5A1.2,1.2,0,0,1,46.138,15a1.134,1.134,0,0,1,.9,1.106v.011a2.325,2.325,0,0,0-2.206,1.735l-1.582,4.882a2.381,2.381,0,0,0-.76-.215Zm-3.85,24.11h-6.8v-3.4h6.8Zm7.2-21.348-2.467,9.208a1.69,1.69,0,0,1-.51.828l-3.839,3.408a2.867,2.867,0,0,0-.947,2.121v1.247H34.7V30.139a4,4,0,0,1,1.962-3.425l5.007-2.931a1.134,1.134,0,0,1,1.554.414,1.168,1.168,0,0,1,.113.862,1.134,1.134,0,0,1-.533.686l-3.249,1.877a.567.567,0,0,0,.567.981l3.249-1.877a2.239,2.239,0,0,0,1.06-1.378A2.272,2.272,0,0,0,44.2,23.63l-.034-.051,1.752-5.4a1.2,1.2,0,0,1,1.35-.907,1.134,1.134,0,0,1,.9,1.106A.976.976,0,0,1,48.134,18.669Z" transform="translate(-13.318 -5.044)" fill="url(#linear-gradient)"/>
    <path id="Path_73877" data-name="Path 73877" d="M17.98,35.482V30.141a5.113,5.113,0,0,0-2.523-4.4L10.445,22.8c-.034-.017-.074-.028-.108-.045L7.859,15.614A2.329,2.329,0,0,0,5.177,13.89a2.279,2.279,0,0,0-1.8,2.217,2.6,2.6,0,0,0,.017.3A2.279,2.279,0,0,0,2.24,18.375a2.507,2.507,0,0,0,.074.59l2.467,9.2a2.787,2.787,0,0,0,.862,1.395l3.827,3.408a1.708,1.708,0,0,1,.573,1.27v1.247a.567.567,0,0,0-.567.567v4.536a.567.567,0,0,0,.567.567H17.98a.567.567,0,0,0,.567-.567V36.049A.567.567,0,0,0,17.98,35.482ZM4.508,16.107A1.134,1.134,0,0,1,5.4,15a1.225,1.225,0,0,1,1.372.947L9.056,22.52a2.382,2.382,0,0,0-.76.215L6.725,17.882a2.353,2.353,0,0,0-2.217-1.763Zm5.716,16.007L6.391,28.706a1.681,1.681,0,0,1-.51-.834l-2.472-9.2a1.2,1.2,0,0,1-.034-.295,1.134,1.134,0,0,1,.9-1.106,1.216,1.216,0,0,1,1.367.936L7.377,23.58l-.034.051a2.272,2.272,0,0,0-.227,1.718,2.239,2.239,0,0,0,1.06,1.378L11.426,28.6a.567.567,0,0,0,.567-.981L8.744,25.747a1.134,1.134,0,0,1-.533-.686,1.168,1.168,0,0,1,.113-.862,1.134,1.134,0,0,1,1.548-.42l5.012,2.937a4,4,0,0,1,1.962,3.425v5.341h-5.67V34.235A2.852,2.852,0,0,0,10.224,32.114Zm7.19,7.9h-6.8v-3.4h6.8Z" transform="translate(0 -5.045)" fill="url(#linear-gradient)"/>
    <path id="Path_73878" data-name="Path 73878" d="M32.631,3.862a5.667,5.667,0,0,0-8.021,0h0a5.669,5.669,0,1,0-8.021,8.014L24.209,19.5a.567.567,0,0,0,.8,0l7.621-7.621a5.674,5.674,0,0,0,0-8.015ZM24.61,18.295l-7.22-7.22A4.536,4.536,0,0,1,20.6,3.333a4.489,4.489,0,0,1,3.205,1.331l.4.4a.567.567,0,0,0,.8,0l.4-.4a4.535,4.535,0,1,1,6.415,6.411Z" transform="translate(-5.495 0)" fill="url(#linear-gradient)"/>
  </g>
</svg>
