<svg xmlns="http://www.w3.org/2000/svg" width="39.557" height="42.95" viewBox="0 0 39.557 42.95">
  <g id="Group_9265" data-name="Group 9265" transform="translate(-227.29 -1252.491)">
    <path id="Path_73967" data-name="Path 73967" d="M214.124,21.456c2.655,2.594,6.14,5.641,9.115,8.682,3.089,3.157,5.63,6.271,6.122,6.865a12.157,12.157,0,0,1,2.549,5.752l.214.195L253.681,21.5c-2.888-2.82-6.752-6.259-9.879-9.464-2.736-2.807-4.906-5.541-5.358-6.087A12.153,12.153,0,0,1,235.9.194s-.215-.2-.215-.2Zm27.019-7.207c3.1,3.132,6.122,5.973,7.389,7.208,0,0-12.275,12.565-15.26,15.525-.051-.032-.042-.012-.053-.045a5.7,5.7,0,0,0-.886-1.661,83.068,83.068,0,0,0-6.4-7.278c-2.9-2.918-5.487-5.4-6.658-6.546,12.379-12.355,12-12.346,15.157-15.475.055.041.043.01.055.045a5.48,5.48,0,0,0,.886,1.622,72.853,72.853,0,0,0,5.765,6.6" transform="translate(13.166 1252.492)" fill="#300b55"/>
    <path id="Path_73968" data-name="Path 73968" d="M293.852,79.159a16.533,16.533,0,0,1-3.6.232,16.1,16.1,0,0,1-3.622-.25,16.467,16.467,0,0,1,.233,3.6,16.047,16.047,0,0,1-.25,3.623,16.507,16.507,0,0,1,3.6-.234,16.124,16.124,0,0,1,3.623.249,16.606,16.606,0,0,1-.232-3.6,16.132,16.132,0,0,1,.249-3.621" transform="translate(-43.028 1191.137)" fill="#9d0371"/>
  </g>
</svg>
