<svg xmlns="http://www.w3.org/2000/svg" width="72.625" height="62.431" viewBox="0 0 72.625 62.431">
  <g id="Group_10113" data-name="Group 10113" transform="translate(-699.152 -133.973)">
    <path id="Path_74204" data-name="Path 74204" d="M31.134,31.517v31.14H0V61.169q0-14.7,0-29.395A31.2,31.2,0,0,1,26.961.687C28.3.5,29.662.478,31.109.373V10.759A20.733,20.733,0,0,0,15.1,18.435a19.731,19.731,0,0,0-4.656,13.082Z" transform="translate(699.152 133.706)" fill="#efefef"/>
    <path id="Path_74205" data-name="Path 74205" d="M177.221,62.431H146.212c-.027-.5-.076-1-.076-1.494,0-9.7-.022-19.408,0-29.112A31.174,31.174,0,0,1,171.15.792c1.961-.427,3.993-.527,6.1-.792V10.484c-6.945.282-12.608,3.058-16.735,8.677a19.792,19.792,0,0,0-3.917,12.151h20.628Z" transform="translate(594.531 133.973)" fill="#efefef"/>
  </g>
</svg>
