<svg id="browser" xmlns="http://www.w3.org/2000/svg" width="36.977" height="36.989" viewBox="0 0 36.977 36.989">
  <path id="Path_73823" data-name="Path 73823" d="M36.747,29.893,31.55,24.5A15.742,15.742,0,0,0,29.02,4.066a.542.542,0,0,0-.727.8,14.677,14.677,0,0,1,3.666,5.161H25c-.653-3.878-1.958-6.977-3.631-8.655a14.61,14.61,0,0,1,4.358,1.633.542.542,0,0,0,.538-.941,15.749,15.749,0,0,0-17.5,26.093H1.949A1.868,1.868,0,0,0,.083,30.028v5.1a1.868,1.868,0,0,0,1.866,1.866H4.128a.542.542,0,0,0,0-1.084H1.949a.783.783,0,0,1-.782-.782v-5.1a.783.783,0,0,1,.782-.782H22.121a.783.783,0,0,1,.782.782v5.1a.783.783,0,0,1-.782.782H7.015a.542.542,0,0,0,0,1.084H22.121a1.868,1.868,0,0,0,1.866-1.866V30.491a15.636,15.636,0,0,0,4.077-2.27l.012,5.179a1.163,1.163,0,0,0,2.076.693l2.09-2.766a.071.071,0,0,1,.068-.027l3.427.535a1.166,1.166,0,0,0,1.01-1.942ZM32.37,11.115a14.67,14.67,0,0,1,.009,9.26H25.158a35.189,35.189,0,0,0,.3-4.63,35.415,35.415,0,0,0-.3-4.63ZM21.545,28.162H15.366a18.482,18.482,0,0,1-2.353-6.7H23.9A18.482,18.482,0,0,1,21.545,28.162Zm-8.7-7.787a34.933,34.933,0,0,1,0-9.26H24.067a34.1,34.1,0,0,1,.308,4.63,34.225,34.225,0,0,1-.308,4.63Zm-9.057-4.63a14.6,14.6,0,0,1,.75-4.63h7.212a36.013,36.013,0,0,0,0,9.26H4.532a14.7,14.7,0,0,1-.745-4.63ZM22.526,5.207A22.293,22.293,0,0,1,23.9,10.031H13.014a22.294,22.294,0,0,1,1.372-4.825c1.114-2.62,2.6-4.123,4.07-4.123s2.957,1.5,4.07,4.123ZM15.544,1.374c-1.674,1.678-2.979,4.778-3.632,8.657H4.947a14.721,14.721,0,0,1,10.6-8.657ZM10.569,28.108a14.642,14.642,0,0,1-5.629-6.65h6.976a21,21,0,0,0,2.184,6.7H10.638a.548.548,0,0,0-.069-.053Zm13.3,1.266a1.875,1.875,0,0,0-1.12-1.1,20.8,20.8,0,0,0,2.246-6.812H31.97a14.6,14.6,0,0,1-1.19,2.241l-.739-.767a1.168,1.168,0,0,0-1.987.8l.007,3.09a14.6,14.6,0,0,1-4.192,2.549Zm12.11,1.352a.062.062,0,0,1-.074.037l-3.427-.535a1.153,1.153,0,0,0-1.1.445L29.288,33.44q-.095.071-.128-.042l-.022-9.665q.028-.107.123-.049l6.707,6.962A.061.061,0,0,1,35.979,30.727Z" transform="translate(-0.083 0)" fill="#fff"/>
  <path id="Path_73824" data-name="Path 73824" d="M39.674,423.517l1.137-3.5a.542.542,0,0,0-1.031-.334l-.681,2.1-.7-1.711a.546.546,0,0,0-1,0l-.7,1.711-.681-2.1a.542.542,0,0,0-1.031.334l1.137,3.5a.547.547,0,0,0,1.017.039l.762-1.856.762,1.856A.546.546,0,0,0,39.674,423.517Z" transform="translate(-32.43 -389.023)" fill="#fff"/>
  <path id="Path_73825" data-name="Path 73825" d="M126.411,423.892a.543.543,0,0,0,.522-.336l.762-1.856.762,1.856a.547.547,0,0,0,1.017-.039l1.137-3.5a.542.542,0,0,0-1.031-.334l-.681,2.1-.7-1.711a.546.546,0,0,0-1,0l-.7,1.711-.681-2.1a.542.542,0,0,0-1.031.334l1.137,3.5A.542.542,0,0,0,126.411,423.892Z" transform="translate(-115.744 -389.023)" fill="#fff"/>
  <path id="Path_73826" data-name="Path 73826" d="M216.214,423.892a.543.543,0,0,0,.522-.336l.762-1.856.762,1.856a.547.547,0,0,0,1.017-.039l1.137-3.5a.542.542,0,0,0-1.031-.334l-.681,2.1-.7-1.711a.546.546,0,0,0-1,0l-.7,1.711-.681-2.1a.542.542,0,0,0-1.031.334l1.137,3.5A.542.542,0,0,0,216.214,423.892Z" transform="translate(-199.059 -389.023)" fill="#fff"/>
</svg>
