<svg id="competition" xmlns="http://www.w3.org/2000/svg" xmlns:xlink="http://www.w3.org/1999/xlink" width="38.154" height="38.249" viewBox="0 0 38.154 38.249">
  <defs>
    <linearGradient id="linear-gradient" x1="-0.524" y1="-2.187" x2="-0.546" y2="2.873" gradientUnits="objectBoundingBox">
      <stop offset="0" stop-color="#9d0d71"/>
      <stop offset="1" stop-color="#300b55"/>
    </linearGradient>
  </defs>
  <path id="Union_2" data-name="Union 2" d="M.557,38.249a.559.559,0,0,1,0-1.117h.866v-6.04a.558.558,0,0,1,1.116,0v6.04H12.794V23.961a.32.32,0,0,0-.318-.32H2.86a.321.321,0,0,0-.321.32v4.372a.558.558,0,0,1-1.116,0V23.961A1.438,1.438,0,0,1,2.86,22.524h9.616a1.442,1.442,0,0,1,.318.037V16.616a1.439,1.439,0,0,1,1.437-1.437h9.614a1.439,1.439,0,0,1,1.437,1.437V28.423a1.406,1.406,0,0,1,.395-.056h9.617A1.438,1.438,0,0,1,36.731,29.8v7.328h.863a.559.559,0,1,1,0,1.117ZM25.36,29.8v7.328H35.615V29.8a.32.32,0,0,0-.32-.32H25.677A.32.32,0,0,0,25.36,29.8ZM13.91,16.616V37.132H24.164V16.616a.317.317,0,0,0-.318-.318H14.231A.32.32,0,0,0,13.91,16.616Zm18.9,9.594-2.058-1.082-2.057,1.082a.559.559,0,0,1-.811-.59l.392-2.293L26.611,21.7a.561.561,0,0,1,.31-.954l2.3-.336,1.03-2.085a.557.557,0,0,1,1,0l1.03,2.085,2.3.336a.56.56,0,0,1,.308.954l-1.664,1.624.393,2.293a.559.559,0,0,1-.22.547.571.571,0,0,1-.33.107A.559.559,0,0,1,32.81,26.209ZM31.013,24l1.314.691-.25-1.464a.551.551,0,0,1,.162-.495l1.064-1.04-1.472-.213a.553.553,0,0,1-.421-.306l-.658-1.333-.658,1.333a.553.553,0,0,1-.421.306l-1.471.213,1.064,1.04a.553.553,0,0,1,.161.495l-.25,1.464L30.49,24a.565.565,0,0,1,.522,0ZM9.261,20.606,7.2,19.523,5.147,20.606a.56.56,0,0,1-.813-.59l.394-2.293L3.063,16.1a.561.561,0,0,1,.31-.954l2.3-.334L6.7,12.725a.56.56,0,0,1,1,0l1.029,2.087,2.3.334a.561.561,0,0,1,.311.954L9.679,17.723l.393,2.293a.559.559,0,0,1-.55.654A.567.567,0,0,1,9.261,20.606ZM7.466,18.4l1.314.693-.25-1.466a.553.553,0,0,1,.159-.495L9.752,16.09l-1.469-.213a.558.558,0,0,1-.42-.306L7.2,14.236,6.547,15.57a.563.563,0,0,1-.422.306l-1.472.213,1.065,1.038a.557.557,0,0,1,.161.495l-.25,1.466L6.943,18.4a.565.565,0,0,1,.522,0Zm7.6-5.462a.559.559,0,0,1,0-1.117h.783A3.274,3.274,0,0,1,18.539,9.15V7.58A3.243,3.243,0,0,1,15.859,4.39V3.709a2.608,2.608,0,0,1-1.731-.863A3.228,3.228,0,0,1,13.5.477.557.557,0,0,1,14.051,0H24.1a.557.557,0,0,1,.552.477,3.22,3.22,0,0,1-.631,2.368,2.588,2.588,0,0,1-1.687.857V4.39A3.246,3.246,0,0,1,19.656,7.58V9.161a3.276,3.276,0,0,1,2.627,2.655h.8a.559.559,0,0,1,0,1.117Zm1.924-1.117h4.152a2.149,2.149,0,0,0-4.152,0ZM16.977,4.39a2.121,2.121,0,1,0,4.242,0V3.245q0-.032,0-.064c0-.021,0-.045,0-.066v-2H16.977Zm-2-2.269a1.488,1.488,0,0,0,.882.458V1.117H14.6A1.756,1.756,0,0,0,14.977,2.12Zm7.361.45a1.453,1.453,0,0,0,.842-.454,1.749,1.749,0,0,0,.374-1H22.338Z" fill="url(#linear-gradient)"/>
</svg>
