<svg id="search" xmlns="http://www.w3.org/2000/svg" width="34.359" height="34.359" viewBox="0 0 34.359 34.359">
  <path id="Path_73890" data-name="Path 73890" d="M264.942,241.576a1.552,1.552,0,0,0,1.12-.472l2.638-2.7a1.564,1.564,0,0,0-2.24-2.184l-1.548,1.587-.271-.264a1.564,1.564,0,1,0-2.181,2.243l1.391,1.352A1.556,1.556,0,0,0,264.942,241.576Zm-1.789-3.3a.556.556,0,0,1,.786-.011l.632.615a.5.5,0,0,0,.713-.009l1.9-1.947a.555.555,0,0,1,.8.775l-2.638,2.7a.558.558,0,0,1-.785.01l-1.391-1.352A.556.556,0,0,1,263.153,238.273Z" transform="translate(-244.406 -219.924)" fill="#fff"/>
  <path id="Path_73891" data-name="Path 73891" d="M218.339,190.107a.5.5,0,0,0-.805.607,6.645,6.645,0,0,0,.6.694,6.56,6.56,0,1,0-1.612-2.64.5.5,0,0,0,.961-.307,5.561,5.561,0,1,1,1.364,2.234A5.648,5.648,0,0,1,218.339,190.107Z" transform="translate(-201.701 -168.111)" fill="#fff"/>
  <path id="Path_73892" data-name="Path 73892" d="M33.664,27.868l-3.182-3.182a.5.5,0,0,0-.713,0l-.019.019-1.225-1.224a8.86,8.86,0,0,0,1.41-4.266.5.5,0,0,0-1.007-.063,7.86,7.86,0,0,1-7.844,7.364h-.048A7.862,7.862,0,1,1,28.82,17.26a.5.5,0,0,0,.993-.178,8.881,8.881,0,0,0-4.57-6.264V6.753A.511.511,0,0,0,25.1,6.4L18.845.148A.511.511,0,0,0,18.489,0H1.512A1.515,1.515,0,0,0,0,1.513V5.752a.5.5,0,0,0,1.009,0V1.513a.5.5,0,0,1,.5-.5H17.984V5.745A1.515,1.515,0,0,0,19.5,7.258h4.737v3.1a8.912,8.912,0,0,0-3.061-.576l-.015,0H9.9a.5.5,0,1,0,0,1.009h7.061a8.84,8.84,0,0,0-2.012,1.444H9.9a.5.5,0,1,0,0,1.009H14.04a8.778,8.778,0,0,0-1.655,3.606H9.9a.5.5,0,1,0,0,1.009h2.339q-.035.394-.036.795,0,.329.024.653H9.9a.5.5,0,1,0,0,1.009h2.459a8.778,8.778,0,0,0,1.684,3.749H9.9a.5.5,0,1,0,0,1.009h5.052a8.839,8.839,0,0,0,2.009,1.442H9.9a.5.5,0,1,0,0,1.009h11.18a8.917,8.917,0,0,0,3.157-.577v5.9a.5.5,0,0,1-.5.5H1.512a.5.5,0,0,1-.5-.5V7.769A.5.5,0,0,0,0,7.769V32.847a1.515,1.515,0,0,0,1.513,1.513H23.73a1.515,1.515,0,0,0,1.513-1.513V26.491q.338-.179.662-.389l1.224,1.224a.509.509,0,0,0-.02.733l3.182,3.182a2.385,2.385,0,0,0,3.373-3.372ZM19.5,6.249a.5.5,0,0,1-.5-.5V1.722l4.528,4.527ZM26.728,25.5q.323-.267.626-.568t.568-.625l1.115,1.115-1.194,1.194Zm6.223,5.029a1.383,1.383,0,0,1-1.946,0L28.18,27.7l1.946-1.946,2.825,2.825A1.382,1.382,0,0,1,32.951,30.527Z" transform="translate(0.001 0)" fill="#fff"/>
  <path id="Path_73893" data-name="Path 73893" d="M52.521,142.772h2.207a1.129,1.129,0,0,0,1.128-1.128v-2.206a1.129,1.129,0,0,0-1.128-1.128H52.521a1.129,1.129,0,0,0-1.128,1.128v2.206a1.129,1.129,0,0,0,1.128,1.128Zm-.119-3.334a.12.12,0,0,1,.119-.119h2.207a.12.12,0,0,1,.119.119v2.206a.12.12,0,0,1-.119.119H52.521a.12.12,0,0,1-.119-.119Z" transform="translate(-47.944 -129.028)" fill="#fff"/>
  <path id="Path_73894" data-name="Path 73894" d="M51.393,247.012a1.129,1.129,0,0,0,1.128,1.128h2.207a1.129,1.129,0,0,0,1.128-1.128v-2.206a1.129,1.129,0,0,0-1.128-1.128H52.521a1.129,1.129,0,0,0-1.128,1.128Zm1.009-2.206a.12.12,0,0,1,.119-.119h2.207a.12.12,0,0,1,.119.119v2.206a.12.12,0,0,1-.119.119H52.521a.12.12,0,0,1-.119-.119Z" transform="translate(-47.944 -227.325)" fill="#fff"/>
  <path id="Path_73895" data-name="Path 73895" d="M51.393,354.519a1.129,1.129,0,0,0,1.128,1.128h2.207a1.129,1.129,0,0,0,1.128-1.128v-2.206a1.129,1.129,0,0,0-1.128-1.128H52.521a1.129,1.129,0,0,0-1.128,1.128Zm1.009-2.206a.12.12,0,0,1,.119-.119h2.207a.12.12,0,0,1,.119.119v2.206a.12.12,0,0,1-.119.119H52.521a.12.12,0,0,1-.119-.119Z" transform="translate(-47.944 -327.618)" fill="#fff"/>
</svg>
