<svg xmlns="http://www.w3.org/2000/svg" xmlns:xlink="http://www.w3.org/1999/xlink" width="40.99" height="40.991" viewBox="0 0 40.99 40.991">
  <defs>
    <linearGradient id="linear-gradient" x1="0.609" y1="1" x2="0.602" y2="-0.528" gradientUnits="objectBoundingBox">
      <stop offset="0" stop-color="#300b55"/>
      <stop offset="1" stop-color="#9d0d71"/>
    </linearGradient>
  </defs>
  <g id="conversation_1_" data-name="conversation (1)" transform="translate(-5 -7)">
    <path id="Union_4" data-name="Union 4" d="M-10091.314-238.245l-3.288-3.289h-4.793a5.61,5.61,0,0,1-5.6-5.6v-12.328a5.611,5.611,0,0,1,5.6-5.6h8.087a.8.8,0,0,1,.8.8.8.8,0,0,1-.8.8h-8.087a4.008,4.008,0,0,0-4,4v12.328a4.009,4.009,0,0,0,4,4h5.2a.8.8,0,0,1,.734.482l1.912,1.91v-1.591a.8.8,0,0,1,.8-.8h8.646a4.006,4.006,0,0,0,4-4v-5.523a.8.8,0,0,1,.8-.8.8.8,0,0,1,.8.8v5.523a5.609,5.609,0,0,1-5.6,5.6h-7.845l0,2.725a.8.8,0,0,1-.494.738.805.805,0,0,1-.307.062A.8.8,0,0,1-10091.314-238.245Zm7.766-10.087a.807.807,0,0,1-.235-.567.806.806,0,0,1,.235-.564.812.812,0,0,1,.566-.236.805.805,0,0,1,.563.236.8.8,0,0,1,.236.564.8.8,0,0,1-.236.567.805.805,0,0,1-.563.236A.812.812,0,0,1-10083.549-248.332Zm-16.326.236a.8.8,0,0,1-.8-.8.8.8,0,0,1,.8-.8h13.743a.8.8,0,0,1,.8.8.8.8,0,0,1-.8.8Zm0-4.484a.8.8,0,0,1-.8-.8.8.8,0,0,1,.8-.8h16.893a.8.8,0,0,1,.8.8.8.8,0,0,1-.8.8Zm30.176-.535-2.991-2.992a11.628,11.628,0,0,1-2.954.38h-2.026a11.649,11.649,0,0,1-11.637-11.637A11.649,11.649,0,0,1-10077.671-279h2.026a11.649,11.649,0,0,1,11.636,11.637,11.532,11.532,0,0,1-1.263,5.279,11.731,11.731,0,0,1-3.062,3.771v4.632a.8.8,0,0,1-.494.741.806.806,0,0,1-.3.062A.808.808,0,0,1-10069.7-253.115Zm-2.194-4.456,1.961,1.959V-258.7a.8.8,0,0,1,.318-.639,9.962,9.962,0,0,0,4-8.021,10.045,10.045,0,0,0-10.034-10.034h-2.026a10.045,10.045,0,0,0-10.035,10.034,10.045,10.045,0,0,0,10.035,10.034h2.026a10.025,10.025,0,0,0,2.95-.441.828.828,0,0,1,.235-.036A.8.8,0,0,1-10071.894-257.571Zm-27.981.507a.8.8,0,0,1-.8-.8.8.8,0,0,1,.8-.8h11.688a.8.8,0,0,1,.8.8.8.8,0,0,1-.8.8Zm22.877-4.051a.8.8,0,0,1-.235-.567.8.8,0,0,1,.235-.567.8.8,0,0,1,.563-.233.812.812,0,0,1,.566.233.8.8,0,0,1,.233.567.8.8,0,0,1-.233.567.8.8,0,0,1-.566.233A.791.791,0,0,1-10077-261.115Zm-.235-3.732v-1.925a1.51,1.51,0,0,1,1.191-1.483,1.784,1.784,0,0,0,1.393-1.874,1.79,1.79,0,0,0-1.655-1.657,1.783,1.783,0,0,0-1.35.477,1.764,1.764,0,0,0-.568,1.307.8.8,0,0,1-.8.8.8.8,0,0,1-.8-.8,3.4,3.4,0,0,1,1.075-2.478,3.378,3.378,0,0,1,2.551-.9,3.4,3.4,0,0,1,3.143,3.143,3.371,3.371,0,0,1-2.581,3.535v1.859a.8.8,0,0,1-.8.8A.8.8,0,0,1-10077.233-264.847Z" transform="translate(10109.999 286)" fill="url(#linear-gradient)"/>
  </g>
</svg>
