<svg id="gift" xmlns="http://www.w3.org/2000/svg" width="32.431" height="34.236" viewBox="0 0 32.431 34.236">
  <path id="Path_73896" data-name="Path 73896" d="M38.585,345.729,32.9,348.547a2.5,2.5,0,0,0-1.72-1.819l-2.634-.781a8.413,8.413,0,0,0-6.888.408c-.158.091-.3.181-.424.261a2.416,2.416,0,0,1-1.59.493,1.788,1.788,0,0,0-1.655-1.116h-2.7a1.787,1.787,0,0,0-1.786,1.785v6.26a1.787,1.787,0,0,0,1.786,1.785h2.7a1.787,1.787,0,0,0,1.782-1.668,10.7,10.7,0,0,1,3.367.546c.834.246,4.4,1.283,4.671,1.361a8.8,8.8,0,0,0,2.434.478,5.337,5.337,0,0,0,3.031-1.091l.017-.012,7.833-5.574a2.425,2.425,0,0,0-2.533-4.135Zm-20.152,8.309a.449.449,0,0,1-.448.448h-2.7a.449.449,0,0,1-.448-.448v-6.26a.449.449,0,0,1,.448-.448h2.7a.449.449,0,0,1,.448.448v6.26Zm21.91-5.264-7.825,5.568c-1.774,1.18-2.527.962-4.342.435-.275-.08-3.832-1.115-4.666-1.36a11.871,11.871,0,0,0-3.74-.6v-4.374a3.685,3.685,0,0,0,2.181-.7c.117-.075.239-.153.369-.228,1.621-.935,3.368-1.02,5.841-.285l2.634.781a1.157,1.157,0,0,1,.785,1.427v0a1.156,1.156,0,0,1-1.43.779l-3.767-1.092a.669.669,0,0,0-.372,1.284l3.767,1.092a2.5,2.5,0,0,0,2.981-1.4l6.419-3.179a1.176,1.176,0,0,1,1.556.325A1.139,1.139,0,0,1,40.343,348.775Z" transform="translate(-13.5 -322.305)" fill="#fff"/>
  <path id="Path_73897" data-name="Path 73897" d="M205.022,166.41l2.769,2.671a.669.669,0,0,0,.928,0l2.769-2.671.017-.017a2.756,2.756,0,0,0,0-3.795,2.425,2.425,0,0,0-3.25-.1,2.421,2.421,0,0,0-3.249.1,2.752,2.752,0,0,0,0,3.8Zm.945-2.883a1.1,1.1,0,0,1,1.522.077l.026.025a.91.91,0,0,0,1.478,0l.025-.023a1.107,1.107,0,0,1,1.524-.078,1.425,1.425,0,0,1,.007,1.93l-2.3,2.214-2.3-2.214A1.4,1.4,0,0,1,205.968,163.528Z" transform="translate(-191.492 -151.096)" fill="#fff"/>
  <path id="Path_73898" data-name="Path 73898" d="M30.535,208.15h3.617a.669.669,0,0,0,0-1.337H30.535a.669.669,0,0,0,0,1.337Z" transform="translate(-28.772 -192.984)" fill="#fff"/>
  <path id="Path_73899" data-name="Path 73899" d="M37.443,141.64l3.137,1.531a.669.669,0,1,0,.587-1.2l-3.137-1.531a.669.669,0,1,0-.587,1.2Z" transform="translate(-35.492 -130.984)" fill="#fff"/>
  <path id="Path_73900" data-name="Path 73900" d="M40.581,250.416l-3.137,1.531a.669.669,0,1,0,.587,1.2l3.137-1.531a.669.669,0,1,0-.587-1.2Z" transform="translate(-35.492 -233.608)" fill="#fff"/>
  <path id="Path_73901" data-name="Path 73901" d="M428.7,206.813h-3.617a.669.669,0,1,0,0,1.337H428.7a.669.669,0,0,0,0-1.337Z" transform="translate(-396.933 -192.984)" fill="#fff"/>
  <path id="Path_73902" data-name="Path 73902" d="M425.077,143.239a.666.666,0,0,0,.293-.068l3.135-1.531a.669.669,0,0,0-.587-1.2l-3.135,1.531a.669.669,0,0,0,.294,1.27Z" transform="translate(-396.932 -130.984)" fill="#fff"/>
  <path id="Path_73903" data-name="Path 73903" d="M428.506,251.949l-3.135-1.531a.669.669,0,1,0-.587,1.2l3.135,1.531a.669.669,0,1,0,.587-1.2Z" transform="translate(-396.932 -233.609)" fill="#fff"/>
  <path id="Path_73904" data-name="Path 73904" d="M112.933,9.2v9.779a2.3,2.3,0,0,0,2.3,2.295h12.32a2.3,2.3,0,0,0,2.294-2.295V9.2a2.173,2.173,0,0,0,1.779-2.134v-.95a2.173,2.173,0,0,0-2.171-2.17h-1.385a2.912,2.912,0,0,0-.134-1.857A3.3,3.3,0,0,0,125.352.015a2.676,2.676,0,0,0-2.536,1.308l-1.427,2.1-1.429-2.1A2.674,2.674,0,0,0,117.426.015a3.3,3.3,0,0,0-2.582,2.073,2.911,2.911,0,0,0-.134,1.856h-1.383a2.173,2.173,0,0,0-2.171,2.17v.95A2.173,2.173,0,0,0,112.933,9.2Zm10.989-7.123a1.369,1.369,0,0,1,1.286-.73,1.966,1.966,0,0,1,1.483,1.242,1.545,1.545,0,0,1-.06,1.358h-3.98Zm-7.837.513a1.966,1.966,0,0,1,1.484-1.243,1.368,1.368,0,0,1,1.285.73l1.272,1.87h-3.981A1.544,1.544,0,0,1,116.085,2.588Zm-3.592,3.527a.834.834,0,0,1,.833-.832h16.125a.834.834,0,0,1,.833.832v.95a.834.834,0,0,1-.833.832H121.39a.669.669,0,1,0,0,1.337h7.117v9.743a.958.958,0,0,1-.957.958h-12.32a.959.959,0,0,1-.959-.958V9.234h1.012a.669.669,0,0,0,0-1.337h-1.955a.834.834,0,0,1-.833-.832v-.95Z" transform="translate(-104.626 0)" fill="#fff"/>
  <path id="Path_73905" data-name="Path 73905" d="M208.45,119.429a.669.669,0,1,0,0-1.337h0a.669.669,0,0,0,0,1.337Z" transform="translate(-194.789 -110.195)" fill="#fff"/>
</svg>
