<?xml version="1.0" encoding="utf-8"?>
<!-- Generator: Adobe Illustrator 24.0.1, SVG Export Plug-In . SVG Version: 6.00 Build 0)  -->
<svg version="1.1" id="Component_52_1" xmlns="http://www.w3.org/2000/svg" xmlns:xlink="http://www.w3.org/1999/xlink" x="0px"
	 y="0px" viewBox="0 0 38.1 38.2" style="enable-background:new 0 0 38.1 38.2;" xml:space="preserve">
<style type="text/css">
	.st0{fill:#8B0C6C;fill-opacity:0;}
	.st1{clip-path:url(#SVGID_2_);}
	.st2{fill:url(#Rectangle_7690_1_);}
	.st3{clip-path:url(#SVGID_4_);}
	.st4{fill:url(#Rectangle_7691_1_);}
	.st5{clip-path:url(#SVGID_6_);}
	.st6{fill:url(#Rectangle_7692_1_);}
</style>
<rect id="Rectangle_7667" x="14.9" y="54" class="st0" width="7" height="7"/>
<g id="Group_8085" transform="translate(0 38.223) rotate(-90)">
	<g id="Group_8086" transform="translate(0 15.614)">
		<g>
			<defs>
				<path id="SVGID_1_" d="M0,0c0.3,2.3,0.3,4.5,0,6.8c2.2-0.2,4.4-0.2,6.7,0C6.4,4.5,6.4,2.3,6.7,0C4.4,0.2,2.2,0.2,0,0"/>
			</defs>
			<clipPath id="SVGID_2_">
				<use xlink:href="#SVGID_1_"  style="overflow:visible;"/>
			</clipPath>
			<g id="Group_8085-2" class="st1">
				
					<linearGradient id="Rectangle_7690_1_" gradientUnits="userSpaceOnUse" x1="-278.9222" y1="-731.1091" x2="-278.9222" y2="-730.1091" gradientTransform="matrix(0 6.775 6.661 0 4873.2427 1889.6979)">
					<stop  offset="0" style="stop-color:#9D0E71"/>
					<stop  offset="1" style="stop-color:#300B55"/>
				</linearGradient>
				
					<rect id="Rectangle_7690" x="-0.1" y="0.1" transform="matrix(-2.535182e-06 -1 1 -2.535182e-06 -6.196885e-02 6.713)" class="st2" width="6.8" height="6.7"/>
			</g>
		</g>
	</g>
	<g id="Group_8088" transform="translate(15.811)">
		<g>
			<defs>
				<path id="SVGID_3_" d="M6.7,0C4.4,0.2,2.2,0.2,0,0c0.3,2.3,0.3,4.5,0,6.8c1.9-0.2,3.8-0.2,5.6-0.1C6,6.7,6.3,6.8,6.6,7
					c0.5,0.4,1,0.8,1.4,1.2C8.3,8.6,8.4,9,8.4,9.4c0.1,1.7,0,3.4-0.1,5c1.8-0.2,3.6-0.2,5.4-0.1c0.5,0,0.9,0.2,1.2,0.6
					c0.2,0.2,0.4,0.5,0.6,0.7c0.2,0.3,0.3,0.6,0.4,1c0.1,1.4,0.1,2.8,0,4.2c0,0.4-0.1,0.7-0.4,1c-0.3,0.5-0.7,0.9-1.2,1.2
					c-0.3,0.2-0.6,0.4-1,0.4c-1.9,0.1-3.7,0.1-5.6-0.1C8,25.1,8,26.9,7.9,28.8c0,0.3-0.1,0.6-0.2,0.8c-0.3,0.5-0.7,1-1.2,1.4
					c-0.3,0.3-0.7,0.4-1.1,0.5c-1.8,0.1-3.6,0.1-5.3-0.1c0.3,2.3,0.3,4.5,0,6.8c2.2-0.2,4.4-0.2,6.7,0c-0.2-1.8-0.2-3.7-0.1-5.5
					c0-0.3,0.1-0.6,0.3-0.9c0.3-0.4,0.6-0.8,0.9-1.2C8.1,30.2,8.6,30,9,29.9c1.8-0.1,3.6-0.1,5.4,0.1c-0.2-1.8-0.2-3.5-0.1-5.3
					c0-0.4,0.2-0.8,0.4-1.1c0.3-0.3,0.5-0.6,0.8-0.9c0.3-0.3,0.7-0.4,1.1-0.5c1.9-0.1,3.8-0.1,5.7,0.1c-0.2-2.3-0.2-4.5,0-6.8
					c-1.7,0.2-3.4,0.2-5.1,0.1c-0.4,0-0.8-0.2-1.1-0.5c-0.4-0.4-0.7-0.8-1-1.2c-0.2-0.3-0.3-0.6-0.3-0.9c-0.1-1.8-0.1-3.7,0.1-5.5
					C13,7.8,11,7.9,9,7.7c-0.4,0-0.7-0.2-1-0.4C7.6,7,7.3,6.6,6.9,6.2c-0.2-0.3-0.4-0.7-0.4-1C6.5,3.5,6.5,1.7,6.7,0z"/>
			</defs>
			<clipPath id="SVGID_4_">
				<use xlink:href="#SVGID_3_"  style="overflow:visible;"/>
			</clipPath>
			<g id="Group_8087" class="st3">
				
					<linearGradient id="Rectangle_7691_1_" gradientUnits="userSpaceOnUse" x1="-375.2097" y1="-678.2505" x2="-375.2097" y2="-677.2505" gradientTransform="matrix(0 38.14 22.412 0 15212.1514 14310.4961)">
					<stop  offset="0" style="stop-color:#9D0E71"/>
					<stop  offset="1" style="stop-color:#300B55"/>
				</linearGradient>
				
					<rect id="Rectangle_7691" x="-7.9" y="7.9" transform="matrix(-2.535182e-06 -1 1 -2.535182e-06 -7.8689 30.2711)" class="st4" width="38.1" height="22.4"/>
			</g>
		</g>
	</g>
	<g id="Group_8090" transform="translate(7.813 7.635)">
		<g>
			<defs>
				<path id="SVGID_5_" d="M0.4,0c0.3,2.3,0.3,4.5,0,6.8c1.7-0.2,3.5-0.2,5.2-0.1c0.4,0,0.8,0.2,1.1,0.5c0.4,0.3,0.7,0.7,1,1.1
					c0.2,0.3,0.3,0.6,0.4,1c0.1,1.4,0.1,2.9,0,4.3c0,0.4-0.2,0.8-0.4,1.1c-0.2,0.3-0.5,0.5-0.8,0.7c-0.3,0.2-0.6,0.4-1,0.4
					c-2,0.2-3.9,0.1-5.9-0.1c0.3,2.3,0.3,4.5,0,6.8c2.2-0.2,4.4-0.2,6.7,0c-0.2-1.7-0.2-3.4-0.1-5.1c0-0.4,0.2-0.8,0.5-1.2
					c0.4-0.4,0.8-0.8,1.3-1.2c0.3-0.2,0.6-0.3,0.9-0.3c1.8-0.1,3.6-0.1,5.4,0.1c-0.2-2.3-0.2-4.5,0-6.8c-1.8,0.2-3.5,0.2-5.3,0.1
					c-0.4,0-0.7-0.1-1-0.4c-0.4-0.3-0.7-0.6-1-1C7.1,6.5,7,6.1,6.9,5.7C6.8,3.8,6.8,1.9,7,0C4.8,0.2,2.6,0.2,0.4,0"/>
			</defs>
			<clipPath id="SVGID_6_">
				<use xlink:href="#SVGID_5_"  style="overflow:visible;"/>
			</clipPath>
			<g id="Group_8089" class="st5">
				
					<linearGradient id="Rectangle_7692_1_" gradientUnits="userSpaceOnUse" x1="-354.9901" y1="-694.2174" x2="-354.9901" y2="-693.2174" gradientTransform="matrix(0 22.395 14.658 0 10183.1631 7950.0049)">
					<stop  offset="0" style="stop-color:#9D0E71"/>
					<stop  offset="1" style="stop-color:#300B55"/>
				</linearGradient>
				
					<rect id="Rectangle_7692" x="-3.9" y="3.9" transform="matrix(-2.535182e-06 -1 1 -2.535182e-06 -3.8735 18.5216)" class="st6" width="22.4" height="14.7"/>
			</g>
		</g>
	</g>
</g>
</svg>
