<svg xmlns="http://www.w3.org/2000/svg" width="18.071" height="22.196" viewBox="0 0 18.071 22.196">
  <g id="pdf-file" transform="translate(-44.806)">
    <path id="Path_81279" data-name="Path 81279" d="M119.614,298c0-.369-.256-.588-.707-.588a1.566,1.566,0,0,0-.374.036v1.183a1.419,1.419,0,0,0,.3.023C119.317,298.653,119.614,298.41,119.614,298Z" transform="translate(-70.333 -283.72)"/>
    <path id="Path_81280" data-name="Path 81280" d="M194.214,297.681a1.865,1.865,0,0,0-.41.036v2.619a1.64,1.64,0,0,0,.315.018,1.241,1.241,0,0,0,1.355-1.4A1.149,1.149,0,0,0,194.214,297.681Z" transform="translate(-142.139 -283.977)"/>
    <path id="Path_81281" data-name="Path 81281" d="M57.266,0H48.351a2.366,2.366,0,0,0-2.362,2.362V11.1h-.231a.952.952,0,0,0-.952.952v5.773a.952.952,0,0,0,.952.952h.231v1.059A2.365,2.365,0,0,0,48.351,22.2H60.515a2.365,2.365,0,0,0,2.362-2.362V5.591ZM47.3,13.092a7.462,7.462,0,0,1,1.224-.083,1.919,1.919,0,0,1,1.224.321,1.17,1.17,0,0,1,.428.927,1.28,1.28,0,0,1-.368.95,1.857,1.857,0,0,1-1.3.422,2.345,2.345,0,0,1-.309-.017v1.432h-.9ZM60.515,20.75H48.351a.916.916,0,0,1-.915-.916V18.775H58.776a.952.952,0,0,0,.952-.952V12.05a.952.952,0,0,0-.952-.952H47.436V2.362a.916.916,0,0,1,.915-.914l8.374-.009v3.1a1.639,1.639,0,0,0,1.638,1.638L61.4,6.164l.034,13.67A.916.916,0,0,1,60.515,20.75Zm-9.758-3.725V13.092a8.154,8.154,0,0,1,1.224-.083,2.578,2.578,0,0,1,1.64.427,1.772,1.772,0,0,1,.677,1.509,2.029,2.029,0,0,1-.665,1.622,2.874,2.874,0,0,1-1.847.517A7.838,7.838,0,0,1,50.757,17.025ZM57.24,14.7v.736H55.8v1.61h-.909v-4h2.447v.742H55.8V14.7Z"/>
  </g>
</svg>
