<svg xmlns="http://www.w3.org/2000/svg" width="18.004" height="14.632" viewBox="0 0 18.004 14.632">
  <path id="Path_8375" data-name="Path 8375" d="M154.112,378.488a10.506,10.506,0,0,0,16.161-9.329,7.489,7.489,0,0,0,1.843-1.912,7.388,7.388,0,0,1-2.121.581,3.7,3.7,0,0,0,1.623-2.043,7.386,7.386,0,0,1-2.345.9,3.7,3.7,0,0,0-6.294,3.369,10.485,10.485,0,0,1-7.614-3.86,3.7,3.7,0,0,0,1.144,4.932,3.682,3.682,0,0,1-1.674-.462,3.7,3.7,0,0,0,2.963,3.669,3.7,3.7,0,0,1-1.667.063,3.7,3.7,0,0,0,3.45,2.565A7.423,7.423,0,0,1,154.112,378.488Z" transform="translate(-154.112 -365.515)" fill="#fff"/>
</svg>
