<svg xmlns="http://www.w3.org/2000/svg" width="41.128" height="29.52" viewBox="0 0 41.128 29.52">
  <g id="Group_10389" data-name="Group 10389" transform="translate(41.128 29.52) rotate(180)">
    <g id="Group_10390" data-name="Group 10390" transform="translate(0 0)">
      <path id="Path_81302" data-name="Path 81302" d="M7.732,17.9c-2.116,0-4.148,0-6.18,0a3.369,3.369,0,0,1-.587-.024A1.214,1.214,0,0,1,0,16.522q0-4.445,0-8.89Q0,4.553,0,1.473C0,.45.443.005,1.463.005q7.5,0,14.992,0c.99,0,1.43.443,1.431,1.438,0,4.981.041,9.962-.034,14.941a10.186,10.186,0,0,1-.744,2.873c-1.008,3.078-2.05,6.146-3.08,9.217a1.249,1.249,0,0,1-1.415,1.038c-1.142.016-2.285.015-3.427,0-1.029-.012-1.451-.444-1.453-1.486q-.008-4.74,0-9.479V17.9" transform="translate(0 -0.004)" fill="#fff"/>
      <path id="Path_81303" data-name="Path 81303" d="M224.723,17.892h-.656c-1.91,0-3.819,0-5.729,0A1.176,1.176,0,0,1,217,16.584q-.007-7.632,0-15.263A1.2,1.2,0,0,1,218.331,0q7.6-.006,15.207,0a1.209,1.209,0,0,1,1.341,1.319c0,5.07.022,10.14-.022,15.21a6.94,6.94,0,0,1-.52,2q-1.6,4.87-3.235,9.73c-.353,1.057-.63,1.247-1.757,1.249-1.053,0-2.106.009-3.159,0s-1.459-.428-1.46-1.475q0-4.713,0-9.426v-.718" transform="translate(-193.757 0)" fill="#fff"/>
    </g>
  </g>
</svg>
