<svg id="online-learning" xmlns="http://www.w3.org/2000/svg" xmlns:xlink="http://www.w3.org/1999/xlink" width="34.963" height="34.195" viewBox="0 0 34.963 34.195">
  <defs>
    <linearGradient id="linear-gradient" x1="0.5" x2="0.5" y2="1" gradientUnits="objectBoundingBox">
      <stop offset="0" stop-color="#9d0d71"/>
      <stop offset="1" stop-color="#300b55"/>
    </linearGradient>
  </defs>
  <path id="Path_73872" data-name="Path 73872" d="M34.451,34.848h-.906v-18.4A2.447,2.447,0,0,0,31.1,14H29.9a2.08,2.08,0,0,0-.9-2.736L22.3,7.721a.512.512,0,1,0-.479.905l6.7,3.547a1.057,1.057,0,0,1,0,1.867l-6.51,3.449-4.139-4.72a.512.512,0,0,0-.77.675l3.979,4.537-2.463,1.3a2.415,2.415,0,0,1-2.26,0l-9.9-5.246a1.057,1.057,0,0,1,0-1.867l9.9-5.246a2.415,2.415,0,0,1,2.26,0l1.418.751a.512.512,0,1,0,.48-.905l-1.418-.751a3.438,3.438,0,0,0-3.219,0l-9.9,5.247A2.08,2.08,0,0,0,5.066,14h-1.2a2.447,2.447,0,0,0-2.445,2.444v18.4H.512A.512.512,0,0,0,0,35.361V36.5a3.325,3.325,0,0,0,3.322,3.322h28.32A3.325,3.325,0,0,0,34.963,36.5V35.361A.512.512,0,0,0,34.451,34.848ZM21.887,25.963l.668,1.157a.53.53,0,0,1-.459.795h-.418a.53.53,0,0,1-.459-.795ZM22.4,18.44l2.119-1.123v2.034A3.748,3.748,0,0,1,22.4,22.743Zm-4.918,2.152a3.441,3.441,0,0,0,1.61-.4l2.284-1.21v4.157a12.422,12.422,0,0,1-8.625-.312,3.746,3.746,0,0,1-2.3-3.476V17.317l5.428,2.875A3.438,3.438,0,0,0,17.481,20.592ZM2.443,16.449a1.422,1.422,0,0,1,1.42-1.42H6.126L8.7,16.395H4.32a.512.512,0,0,0-.512.512V32.971a.512.512,0,0,0,.512.512h2.7a.512.512,0,1,0,0-1.024H4.833V17.419H9.42v1.932a4.768,4.768,0,0,0,2.936,4.422,13.461,13.461,0,0,0,9.019.441V24.8l-1.043,1.806a1.554,1.554,0,0,0,1.346,2.331H22.1a1.554,1.554,0,0,0,1.346-2.331L22.4,24.8v-.946c.069-.027.139-.054.207-.083a4.768,4.768,0,0,0,2.936-4.422V17.419H30.13V32.459H9.073a.512.512,0,1,0,0,1.024h21.57a.512.512,0,0,0,.512-.512V16.907a.512.512,0,0,0-.512-.512H26.259l2.578-1.366H31.1a1.422,1.422,0,0,1,1.42,1.42v18.4H2.443ZM20.649,35.873a1.4,1.4,0,0,1-1.327.948H15.641a1.4,1.4,0,0,1-1.327-.948Zm13.29.623a2.3,2.3,0,0,1-2.3,2.3H3.322a2.3,2.3,0,0,1-2.3-2.3v-.623H13.258a2.43,2.43,0,0,0,2.383,1.972h3.681a2.43,2.43,0,0,0,2.383-1.972H33.938Z" transform="translate(0 -5.622)" fill="url(#linear-gradient)"/>
  <path id="Path_73873" data-name="Path 73873" d="M104.4,364.129a.512.512,0,0,0-.512-.512H93.635a.512.512,0,0,0,0,1.024h10.253A.512.512,0,0,0,104.4,364.129Z" transform="translate(-86.764 -339.171)" fill="url(#linear-gradient)"/>
  <path id="Path_73874" data-name="Path 73874" d="M93.635,333.1h6.855a.512.512,0,1,0,0-1.024H93.635a.512.512,0,1,0,0,1.024Z" transform="translate(-86.764 -309.781)" fill="url(#linear-gradient)"/>
</svg>
