<svg xmlns="http://www.w3.org/2000/svg" width="34" height="34" viewBox="0 0 34 34">
  <path id="process_1_" data-name="process (1)" d="M32.381,23.766l.835-1.408-2.929-2.929-1.408.835-.08-.033-.406-1.586H24.251l-.405,1.587-.08.033-1.408-.835-2.929,2.929.835,1.408-.033.08-1.586.405v4.142l1.587.405c.011.027.022.054.033.08l-.835,1.408,2.929,2.929,1.408-.835.08.033L24.252,34h4.142l.405-1.587.08-.033,1.408.835,2.929-2.929-.835-1.408.033-.08L34,28.393V24.251l-1.587-.405Zm.523,3.776-1.32.337-.1.276a5.17,5.17,0,0,1-.217.523l-.126.264.7,1.172-1.724,1.724-1.172-.7-.264.126a5.487,5.487,0,0,1-.523.217l-.276.1-.337,1.32H25.1l-.337-1.32-.276-.1a5.17,5.17,0,0,1-.523-.217l-.264-.126-1.172.7-1.724-1.724.7-1.172-.126-.264a5.487,5.487,0,0,1-.217-.523l-.1-.276-1.321-.337V25.1l1.32-.337.1-.276a5.17,5.17,0,0,1,.217-.523L21.5,23.7l-.7-1.172,1.724-1.724,1.172.7.264-.126a5.487,5.487,0,0,1,.523-.217l.276-.1.337-1.321h2.439l.337,1.32.276.1a5.17,5.17,0,0,1,.523.217l.264.126,1.172-.7,1.724,1.724-.7,1.172.126.264a5.487,5.487,0,0,1,.217.523l.1.276L32.9,25.1Zm-6.581-5.607a4.387,4.387,0,1,0,4.387,4.387A4.392,4.392,0,0,0,26.323,21.935Zm0,7.677a3.29,3.29,0,1,1,3.29-3.29A3.294,3.294,0,0,1,26.323,29.613Zm0-5.484a2.194,2.194,0,1,0,2.194,2.194A2.2,2.2,0,0,0,26.323,24.129Zm0,3.29a1.1,1.1,0,1,1,1.1-1.1A1.1,1.1,0,0,1,26.323,27.419ZM23.581,14.681A2.755,2.755,0,0,0,21.8,12.114l-2.608-.978v-.465a3.289,3.289,0,0,0,.918-1.386,2.193,2.193,0,0,0,1.823-2.156V4.935a4.935,4.935,0,1,0-9.871,0V7.129a2.193,2.193,0,0,0,1.823,2.156,3.3,3.3,0,0,0,.918,1.386v.465l-2.608.978a2.754,2.754,0,0,0-1.78,2.567v2.867H23.581Zm-4-2.228-.71,2.128-1.1-.549,1.106-1.843ZM17,13.192l-1.1-1.828v-.04a3.229,3.229,0,0,0,2.194,0v.04Zm0-2.773a2.2,2.2,0,0,1-2.194-2.194V6A4.245,4.245,0,0,0,17,5.12,4.24,4.24,0,0,0,19.194,6V8.226A2.2,2.2,0,0,1,17,10.419Zm3.29-2.346V6.185a1.087,1.087,0,0,1,0,1.888ZM17,1.1a3.843,3.843,0,0,1,3.839,3.839v.3a2.17,2.17,0,0,0-1.1-.3h-.094A3.173,3.173,0,0,1,17.388,4L17,3.611,16.612,4a3.174,3.174,0,0,1-2.26.936h-.094a2.17,2.17,0,0,0-1.1.3v-.3A3.843,3.843,0,0,1,17,1.1ZM13.161,7.129a1.093,1.093,0,0,1,.548-.944V8.073A1.092,1.092,0,0,1,13.161,7.129Zm1.958,5.061,1.106,1.842-1.1.549-.71-2.128Zm7.364,4.262H11.516v-1.77a1.653,1.653,0,0,1,1.068-1.54l.806-.3,1.1,3.289L17,14.871l2.514,1.257,1.1-3.289.807.3a1.652,1.652,0,0,1,1.067,1.54Zm-11.516,3.29H0V34H10.968ZM9.871,32.9H1.1V20.839H9.871Zm-1.1-9.871H2.194v-1.1H8.774ZM3.29,25.226h-1.1v-1.1h1.1Zm1.1-1.1H8.774v1.1H4.387Zm4.387,3.29H2.194v-1.1H8.774Zm0,2.194H2.194v-1.1H8.774Zm-1.1,1.1h1.1v1.1h-1.1Zm-1.1,1.1H2.194v-1.1H6.581ZM7.838,9.483,9.1,8.226H6.581a.549.549,0,0,0-.548.548v9.871h-1.1V8.774A1.647,1.647,0,0,1,6.581,7.129H9.1L7.838,5.872,8.614,5.1l2.581,2.581L8.614,10.259Zm9.71,17.388h-4.16l1.257,1.257-.775.775-2.581-2.581,2.581-2.581.775.775-1.257,1.257h4.16Zm8.774-11.195v-6.9a.549.549,0,0,0-.548-.548H23.032v-1.1h2.742a1.647,1.647,0,0,1,1.645,1.645v6.9l1.257-1.257.775.775-2.581,2.581L24.29,15.194l.775-.775Zm0,0" fill="#fff"/>
</svg>
