<svg xmlns="http://www.w3.org/2000/svg" xmlns:xlink="http://www.w3.org/1999/xlink" width="39.415" height="39.437" viewBox="0 0 39.415 39.437">
  <defs>
    <linearGradient id="linear-gradient" x1="0.5" x2="0.5" y2="1" gradientUnits="objectBoundingBox">
      <stop offset="0" stop-color="#9d0d71"/>
      <stop offset="1" stop-color="#300b55"/>
    </linearGradient>
  </defs>
  <g id="Layer_11" data-name="Layer 11" transform="translate(-6 -9)">
    <path id="Union_3" data-name="Union 3" d="M-9968.551-237.563a1.905,1.905,0,0,1-1.905-1.907v-.637A2.543,2.543,0,0,1-9973-242.65v-13.987a2.545,2.545,0,0,1,2.544-2.545h4.691l1.1-2.191a.637.637,0,0,1,.569-.351h8.289a11.441,11.441,0,0,1,2.979-12.2,11.443,11.443,0,0,1,12.374-2.124,11.445,11.445,0,0,1,6.873,10.508,11.455,11.455,0,0,1-10.172,11.37v11.52a2.542,2.542,0,0,1-2.542,2.543v.637a1.907,1.907,0,0,1-1.907,1.907Zm-.635-1.907a.635.635,0,0,0,.635.635h20.345a.635.635,0,0,0,.635-.635v-.637h-21.614Zm-2.542-3.18a1.273,1.273,0,0,0,1.271,1.272h24.157a1.271,1.271,0,0,0,1.271-1.272v-1.272h-9.338a6.955,6.955,0,0,1-8.02,0h-9.343Zm7.628-6.995a5.722,5.722,0,0,0,5.723,5.722,5.728,5.728,0,0,0,5.721-5.722,5.721,5.721,0,0,0-5.721-5.722A5.722,5.722,0,0,0-9964.1-249.645Zm11.112,4.452h7.96v-8.9a11.265,11.265,0,0,1-1.646-.127l-3.1,1.938a.641.641,0,0,1-.712-.025.64.64,0,0,1-.242-.67l.277-1.117h-2.535a6.962,6.962,0,0,1,1.331,2.543h.907a1.908,1.908,0,0,1,1.908,1.907,1.908,1.908,0,0,1-1.908,1.907h-.907A6.97,6.97,0,0,1-9952.987-245.193Zm-18.74,0h7.958a6.985,6.985,0,0,1,0-8.9h-7.958Zm20.342-4.452c0,.215-.014.426-.031.637h.668a.637.637,0,0,0,.636-.637.635.635,0,0,0-.636-.635h-.668C-9951.4-250.071-9951.386-249.86-9951.386-249.645Zm-3.3-19.023a10.163,10.163,0,0,0,5.537,12.425.635.635,0,0,1,.358.735l-.327,1.311,1.97-1.232a.638.638,0,0,1,.441-.088,10.247,10.247,0,0,0,1.677.15,10.161,10.161,0,0,0,10.114-9.1,10.162,10.162,0,0,0-7.991-11.007,10.181,10.181,0,0,0-2.121-.224A10.164,10.164,0,0,0-9954.684-268.668Zm.314,13.3h4.118a11.393,11.393,0,0,1-3.289-2.543h-16.916a1.273,1.273,0,0,0-1.271,1.272v1.27h9.343a6.961,6.961,0,0,1,4.01-1.269A6.949,6.949,0,0,1-9954.369-255.367Zm-9.974-3.815h9.814a11.324,11.324,0,0,1-.739-1.27h-8.439Zm1.516,9.537a4.45,4.45,0,0,1,4.45-4.45,4.454,4.454,0,0,1,4.449,4.45,4.451,4.451,0,0,1-4.449,4.452A4.451,4.451,0,0,1-9962.827-249.645Zm1.271,0a3.18,3.18,0,0,0,3.18,3.18,3.182,3.182,0,0,0,3.177-3.18,3.176,3.176,0,0,0-3.177-3.178A3.178,3.178,0,0,0-9961.557-249.645Zm7.629-15.895a8.9,8.9,0,0,1,8.9-8.9,8.909,8.909,0,0,1,8.9,8.9,8.9,8.9,0,0,1-8.9,8.9A8.9,8.9,0,0,1-9953.928-265.54Zm1.271,0a7.63,7.63,0,0,0,7.629,7.63,7.638,7.638,0,0,0,7.63-7.63,7.63,7.63,0,0,0-7.63-7.63A7.63,7.63,0,0,0-9952.656-265.54Zm9.146,5.072a1.923,1.923,0,0,1-1.52-1.892,2.11,2.11,0,0,1,.027-.261l-2.187-1.313a1.877,1.877,0,0,1-1.017.3,1.907,1.907,0,0,1-1.907-1.907,1.907,1.907,0,0,1,1.907-1.907,1.894,1.894,0,0,1,1.017.3l2.188-1.313a2.318,2.318,0,0,1-.027-.261,1.908,1.908,0,0,1,1.907-1.907,1.909,1.909,0,0,1,1.909,1.907,1.909,1.909,0,0,1-1.909,1.907,1.894,1.894,0,0,1-1.295-.514l-1.985,1.192a1.765,1.765,0,0,1,0,1.19l1.985,1.192a1.923,1.923,0,0,1,2.422-.159,1.915,1.915,0,0,1,.646,2.339,1.918,1.918,0,0,1-1.757,1.148A1.929,1.929,0,0,1-9943.51-260.468Zm-.247-1.892a.635.635,0,0,0,.635.635.636.636,0,0,0,.638-.635.638.638,0,0,0-.638-.637A.636.636,0,0,0-9943.757-262.36Zm-5.087-3.18a.637.637,0,0,0,.638.635.635.635,0,0,0,.635-.635.635.635,0,0,0-.635-.635A.637.637,0,0,0-9948.844-265.54Zm5.087-3.18a.636.636,0,0,0,.635.637.638.638,0,0,0,.638-.637.636.636,0,0,0-.638-.635A.635.635,0,0,0-9943.757-268.72Z" transform="translate(9979 286)" fill="url(#linear-gradient)"/>
  </g>
</svg>
