<svg xmlns="http://www.w3.org/2000/svg" width="23.115" height="22.152" viewBox="0 0 23.115 22.152">
  <path id="star_4_" data-name="star (4)" d="M23.055,8.862A1.226,1.226,0,0,0,22,8.018l-6.672-.606L12.688,1.237a1.228,1.228,0,0,0-2.26,0L7.79,7.412l-6.673.606a1.23,1.23,0,0,0-.7,2.15L5.463,14.59l-1.487,6.55A1.227,1.227,0,0,0,5.8,22.468l5.755-3.44,5.753,3.44a1.228,1.228,0,0,0,1.828-1.327l-1.487-6.55,5.043-4.422a1.229,1.229,0,0,0,.36-1.306Zm0,0" transform="translate(0 -0.491)" fill="#ffc107"/>
</svg>
