<svg id="Group_10531" data-name="Group 10531" xmlns="http://www.w3.org/2000/svg" width="262.655" height="227.618" viewBox="0 0 262.655 227.618">
  <g id="Group_10533" data-name="Group 10533">
    <path id="Path_674" data-name="Path 674" d="M247.978,358.794H29.249a7.557,7.557,0,0,1,0-15.114H247.978a7.557,7.557,0,1,1,0,15.114" transform="translate(-8.28 -131.176)" fill="#b06799"/>
    <path id="Path_675" data-name="Path 675" d="M148.217,14.359a5.645,5.645,0,0,0-8.786-2.776,4.518,4.518,0,0,0-1.5-.885,6.247,6.247,0,0,0-6.214-5.611,6.31,6.31,0,0,0-.746.049,9.013,9.013,0,0,0-10.05-3.3A8.411,8.411,0,0,0,107.953,5.1c-.088,0-.174-.014-.263-.014a7.644,7.644,0,0,0-7.632,7.293,5.861,5.861,0,1,0,1.134,11.282,8.08,8.08,0,0,0,14.689,3.933,8.321,8.321,0,0,0,4.577.734A7.178,7.178,0,0,0,132.757,27a8.314,8.314,0,0,0,10.756-1.341,6.134,6.134,0,0,0,4.7-11.3" transform="translate(-35.61)" fill="#f4eff4"/>
    <path id="Path_677" data-name="Path 677" d="M67.083,146.57a6.9,6.9,0,0,0-10.733-3.391,5.508,5.508,0,0,0-1.828-1.08,7.59,7.59,0,0,0-8.5-6.795,11.011,11.011,0,0,0-12.276-4.036A10.273,10.273,0,0,0,17.9,135.261c-.108,0-.213-.016-.322-.016a9.336,9.336,0,0,0-9.322,8.908,7.159,7.159,0,1,0,1.386,13.781,9.871,9.871,0,0,0,17.943,4.8,10.366,10.366,0,0,0,4.375.973,10.5,10.5,0,0,0,1.214-.077A8.768,8.768,0,0,0,48.2,162.016a10.158,10.158,0,0,0,13.139-1.638,7.492,7.492,0,0,0,5.745-13.808" transform="translate(0 -49.249)" fill="#f4eff4"/>
    <path id="Path_81362" data-name="Path 81362" d="M67.083,146.57a6.9,6.9,0,0,0-10.733-3.391,5.508,5.508,0,0,0-1.828-1.08,7.59,7.59,0,0,0-8.5-6.795,11.011,11.011,0,0,0-12.276-4.036A10.273,10.273,0,0,0,17.9,135.261c-.108,0-.213-.016-.322-.016a9.336,9.336,0,0,0-9.322,8.908,7.159,7.159,0,1,0,1.386,13.781,9.871,9.871,0,0,0,17.943,4.8,10.366,10.366,0,0,0,4.375.973,10.5,10.5,0,0,0,1.214-.077A8.768,8.768,0,0,0,48.2,162.016a10.158,10.158,0,0,0,13.139-1.638,7.492,7.492,0,0,0,5.745-13.808" transform="translate(191.382 -34.699)" fill="#f4eff4"/>
    <path id="Path_678" data-name="Path 678" d="M231.3,243.9l-131.517-.613a6.492,6.492,0,0,1-6.462-6.523L94.082,73.8A6.492,6.492,0,0,1,100.6,67.34l131.518.613a6.492,6.492,0,0,1,6.462,6.523l-.76,162.958A6.492,6.492,0,0,1,231.3,243.9" transform="translate(-35.619 -25.702)" fill="#ffbeeb"/>
    <rect id="Rectangle_489" data-name="Rectangle 489" width="164.359" height="132.075" transform="matrix(0.005, -1, 1, 0.005, 62.519, 213.737)" fill="#d277b6"/>
    <rect id="Rectangle_490" data-name="Rectangle 490" width="164.359" height="129.302" transform="matrix(0.005, -1, 1, 0.005, 65.301, 211.794)" fill="#fff"/>
    <path id="Path_679" data-name="Path 679" d="M282.337,146.021H264.1V127.783h18.238Zm-17.177-1.06h16.117V128.843H265.16Z" transform="translate(-100.801 -48.772)" fill="#d1dbdb"/>
    <rect id="Rectangle_491" data-name="Rectangle 491" width="37.896" height="3.55" transform="translate(80.288 79.011)" fill="#d277b6"/>
    <rect id="Rectangle_492" data-name="Rectangle 492" width="72.44" height="1.208" transform="translate(80.288 86.355)" fill="#d1dbdb"/>
    <rect id="Rectangle_493" data-name="Rectangle 493" width="72.44" height="1.208" transform="translate(80.288 91.198)" fill="#d1dbdb"/>
    <rect id="Rectangle_494" data-name="Rectangle 494" width="72.44" height="1.208" transform="translate(80.288 96.041)" fill="#d1dbdb"/>
    <path id="Path_680" data-name="Path 680" d="M282.337,203.959H264.1V185.72h18.238ZM265.16,202.9h16.117V186.781H265.16Z" transform="translate(-100.801 -70.886)" fill="#d1dbdb"/>
    <rect id="Rectangle_495" data-name="Rectangle 495" width="37.896" height="3.55" transform="translate(80.288 114.835)" fill="#d277b6"/>
    <rect id="Rectangle_496" data-name="Rectangle 496" width="72.44" height="1.208" transform="translate(80.288 122.179)" fill="#d1dbdb"/>
    <rect id="Rectangle_497" data-name="Rectangle 497" width="72.44" height="1.208" transform="translate(80.288 127.022)" fill="#d1dbdb"/>
    <rect id="Rectangle_498" data-name="Rectangle 498" width="72.44" height="1.208" transform="translate(80.288 131.865)" fill="#d1dbdb"/>
    <path id="Path_681" data-name="Path 681" d="M282.337,261.9H264.1V243.658h18.238Zm-17.177-1.06h16.117V244.719H265.16Z" transform="translate(-100.801 -92.999)" fill="#d1dbdb"/>
    <rect id="Rectangle_499" data-name="Rectangle 499" width="37.896" height="3.55" transform="translate(80.288 150.659)" fill="#d277b6"/>
    <rect id="Rectangle_500" data-name="Rectangle 500" width="72.44" height="1.208" transform="translate(80.288 158.003)" fill="#d1dbdb"/>
    <rect id="Rectangle_501" data-name="Rectangle 501" width="72.44" height="1.208" transform="translate(80.288 162.846)" fill="#d1dbdb"/>
    <rect id="Rectangle_502" data-name="Rectangle 502" width="72.44" height="1.208" transform="translate(80.288 167.69)" fill="#d1dbdb"/>
    <path id="Path_682" data-name="Path 682" d="M263.049,129.567a27.447,27.447,0,0,1,9.4,10.349s8-12.762,16.818-15.9l-2.287-3.042s-7.595,4.573-14.127,15.96c0,0-2.614-6.487-7.268-10.325Z" transform="translate(-100.401 -46.172)" fill="#9d0d71"/>
    <path id="Path_683" data-name="Path 683" d="M269.821,186.4a27.447,27.447,0,0,1,9.4,10.349s8-12.762,16.818-15.9l-2.287-3.043s-7.595,4.573-14.127,15.961c0,0-2.614-6.487-7.268-10.326Z" transform="translate(-102.985 -67.864)" fill="#9d0d71"/>
    <path id="Path_684" data-name="Path 684" d="M304.144,215.336s-7.438-11.1-11.427-13.789a16.478,16.478,0,0,0-2.62,3.82s7.437,9.217,9.112,12.569Z" transform="translate(-110.724 -76.926)" fill="#550b5e"/>
    <path id="Path_685" data-name="Path 685" d="M326.921,349.793a10.955,10.955,0,0,1-2.712,3.754c-2.027,1.9-3.228,3.453-2.286,3.843s8.451-2.058,10.214-2.781,3.116-.8-.2-6.171Z" transform="translate(-122.747 -132.992)" fill="#300b55"/>
    <path id="Path_686" data-name="Path 686" d="M316.252,282.676s-3.079,22.338,8.488,39.883l5.011-1.355s-8.4-20.656-6.322-32.749l3.02-.461s5.616,15.2,28.748,15.2V297.7s-22.887.409-22.624-20.618Z" transform="translate(-120.565 -105.757)" fill="#062f71"/>
    <path id="Path_687" data-name="Path 687" d="M326.543,324.722h0c-10.884-14.809-6.5-39.965-6.5-39.965v-.73l-3.792,1.3s-3.079,22.338,8.487,39.882Z" transform="translate(-120.565 -108.407)" fill="#061d38"/>
    <path id="Path_688" data-name="Path 688" d="M359.856,304.358c-16.89,1.634-26-12.143-26-12.143,1.391-2.026.977-5.5.977-5.5-.786,2.319-6.749,5.417-6.749,5.417l3.02-.461s5.616,15.2,28.748,15.2Z" transform="translate(-125.225 -109.433)" fill="#061d38"/>
    <path id="Path_689" data-name="Path 689" d="M300.489,244.688s-5.972,6.741-21.344,12.86l1.728,3.492s13.206-1.754,19.617-8.932c0,0-.085,10.393,1.741,16.036,0,0,14.111-1.585,16.321-5.593,0,0-6.01-16.382-12.2-23.541Z" transform="translate(-106.544 -91.226)" fill="#300b55"/>
    <path id="Path_690" data-name="Path 690" d="M315.125,229.461a7.611,7.611,0,1,1-7.612-7.612,7.612,7.612,0,0,1,7.612,7.612" transform="translate(-114.467 -84.675)" fill="#ffc99c"/>
    <path id="Path_691" data-name="Path 691" d="M379.466,315.6a29.952,29.952,0,0,1,4.167,2.833c2.06,1.689,3.69,4.172,4.124,2.656s-2.512-9.165-3.048-10.984c-.344-1.171-5.244,0-5.244,0Z" transform="translate(-144.835 -118.163)" fill="#300b55"/>
    <path id="Path_692" data-name="Path 692" d="M299.1,226.828s.586,1.7,4,1.7,5.672.735,5.966,2.425c0,0,1.072-1.521,1.739-1.436s.626,2.878-.79,3.255l2.3.986s3.29-4.15,1.815-9.142c-1.093-3.7-3.923-3.7-3.923-3.7s-3.188-2.332-6.168-1.2-5.736,5.071-6.712,3.127c0,0-.418,3.949,1.772,3.984" transform="translate(-113.472 -83.743)" fill="#062f71"/>
    <path id="Path_693" data-name="Path 693" d="M274.149,268.03s-3.152-1.971-4.483-1.48,2.241,2.338,2.241,2.338-3.727,2.731-5.535,3.688,4.505,2.727,9.5-1.054Z" transform="translate(-101.548 -101.707)" fill="#ffc99c"/>
    <path id="Path_694" data-name="Path 694" d="M286.842,202.152s-4.657.288-5.194-.46,1.774-1.278,3.438-1.288c0,0,1.59-6.648,3-7.163,2.829-1.031,1.374,5.091,1.374,5.091a31.755,31.755,0,0,0-2.62,3.82" transform="translate(-107.469 -73.712)" fill="#ffc99c"/>
    <path id="Path_695" data-name="Path 695" d="M299.1,228.949s.586,1.7,4,1.7,5.672.735,5.966,2.425c0,0,1.072-1.521,1.739-1.436s.626,2.878-.79,3.255l2.3.986a11.5,11.5,0,0,0,1.686-3.34,14.19,14.19,0,0,0-.4-2.9c-.519-1.555-1.763-.933-3.63-.932s-1.763-2.7-1.763-2.7a7.911,7.911,0,0,1-5.393,2.282c-2.424-.081-4.4-2.049-5.155-2.915a1.032,1.032,0,0,1-.336-.407s-.418,3.949,1.772,3.984" transform="translate(-113.472 -85.865)" fill="#061d38"/>
    <path id="Path_696" data-name="Path 696" d="M303.058,252.569s-.83,1.085-8.5,6.184a46.033,46.033,0,0,1-14.021,5.705l.87,1.758s13.206-1.754,19.617-8.932c0,0-.085,10.393,1.741,16.036,0,0,1.595-.18,3.792-.569-3.4-8.843-3.495-20.181-3.495-20.181" transform="translate(-107.074 -96.4)" fill="#550b5e"/>
    <path id="Path_697" data-name="Path 697" d="M328.885,352.84c.466-.583.265-1.762-.161-3l-1.8.487a10.95,10.95,0,0,1-2.712,3.754c-2.027,1.9-3.229,3.453-2.287,3.843a5.614,5.614,0,0,0,2.184-.268c1.262-2.624,3.83-3.633,4.778-4.819" transform="translate(-122.747 -133.528)" fill="#550b5e"/>
    <path id="Path_698" data-name="Path 698" d="M387.758,323.253a6.777,6.777,0,0,0-.354-2.649c-1.8-1.568-4.146-3.6-5.037-4.309a9.083,9.083,0,0,0-2.9-1.046v2.515a29.978,29.978,0,0,1,4.167,2.832c2.06,1.689,3.69,4.173,4.124,2.657" transform="translate(-144.835 -120.324)" fill="#550b5e"/>
    <path id="Path_699" data-name="Path 699" d="M204.7,52.035s20.074,4,26.766,27.761H227.1s-7.458-16.671-17.811-17.991H183.658S189.3,54.323,197,53.179Z" transform="translate(-70.099 -19.861)" fill="#300b55"/>
    <path id="Path_700" data-name="Path 700" d="M222.488,70.288c-5.828-6.546-9.774-9.953-13.988-10.222s-8.339.09-10.222-2.152a26.772,26.772,0,0,1-2.45-3.659c-7.094,1.669-12.169,8.4-12.169,8.4h25.636c10.354,1.32,17.811,17.991,17.811,17.991h1.373a30.3,30.3,0,0,0-5.99-10.356" transform="translate(-70.099 -20.708)" fill="#550b5e"/>
    <path id="Path_701" data-name="Path 701" d="M213.3,44.314a1.219,1.219,0,0,0-.813,0V44.3a7.843,7.843,0,0,0-15.686,0v.012a1.219,1.219,0,0,0-.813,0,1.629,1.629,0,0,0,1.108,3.017,1.205,1.205,0,0,0,.263-.14,7.836,7.836,0,0,0,14.569,0,1.187,1.187,0,0,0,.263.14,1.629,1.629,0,0,0,1.108-3.017" transform="translate(-74.482 -13.914)" fill="#ffc99c"/>
    <path id="Path_702" data-name="Path 702" d="M199.025,43.556a8.694,8.694,0,0,1,2.317-5.912,7.835,7.835,0,0,0-4.543,7.108v.012a1.221,1.221,0,0,0-.814,0,1.628,1.628,0,0,0,1.108,3.017,1.152,1.152,0,0,0,.263-.139,7.832,7.832,0,0,0,9.57,4.606,8.738,8.738,0,0,1-7.9-8.7" transform="translate(-74.483 -14.368)" fill="#eaae81"/>
    <path id="Path_703" data-name="Path 703" d="M207.444,37.628s-2.7,4.179-6.568,4.6l.838-2.253s-3.39,1.153-3.836,3.416c0,0-.754-1.1-1.381-1.146,0,0-.843-11.522,10.212-9.948l-.623-1.258s4.226.388,5.577,4.234c0,0,2.724.963,2.145,6.972,0,0-.743-.388-1.428.644,0,0-.845-4.754-4.937-5.265" transform="translate(-74.994 -11.848)" fill="#062f71"/>
    <path id="Path_704" data-name="Path 704" d="M253.3,96.933s-1.178,2.709-.991,3.515,1.334.329,1.968-1.073a3.59,3.59,0,0,1,2.781,1.985c.965,1.878,1.77,3.273,2.2,2.093s.932-3.273-1.6-6.52Z" transform="translate(-96.294 -36.997)" fill="#ffc99c"/>
    <path id="Path_705" data-name="Path 705" d="M184.418,66.687s-4.926-.788-5.211.26-.58,2.915.445,3.258,6.053.333,6.237-.735.411-2.563-1.471-2.784" transform="translate(-68.297 -25.345)" fill="#ffc99c"/>
    <path id="Path_706" data-name="Path 706" d="M205.153,37.229a14.973,14.973,0,0,0-5.682.68,9.58,9.58,0,0,1,5.116-5.06c-8.814.112-8.089,10.09-8.089,10.09.627.041,1.381,1.145,1.381,1.145.446-2.263,3.836-3.415,3.836-3.415l-.838,2.253a10.065,10.065,0,0,0,4.277-5.693" transform="translate(-74.994 -12.538)" fill="#061d38"/>
    <path id="Path_707" data-name="Path 707" d="M183.4,339.781l-8.527-1.681,0-.832-2.112.416-2.112-.416,0,.832-8.527,1.681s-11.767,3.719-11.22,8.951c.5,4.8,13.9,6.2,21.854,3.864,7.958,2.339,21.353.931,21.855-3.864.547-5.233-11.22-8.951-11.22-8.951" transform="translate(-57.595 -128.728)" fill="#062f71"/>
    <path id="Path_708" data-name="Path 708" d="M194.625,349.3a3.583,3.583,0,0,0,.012-.39c-3.583,3.065-12.52,2.637-13.349-.131-.893-2.98,3.873-3.882,3.873-3.882h-14a33.506,33.506,0,0,0-7.1.812l8.72,1.475,2.543,3.854s-19.779-1.086-19.6-3.854,14.488-8.428,14.49-8.429l-8.08,1.593s-11.768,3.719-11.221,8.951c.5,4.8,13.9,6.2,21.855,3.865,7.957,2.339,21.352.931,21.855-3.865" transform="translate(-57.594 -129.296)" fill="#061d38"/>
    <path id="Path_709" data-name="Path 709" d="M242.828,287.465l-.587-1.836s-2.232-3.174-1.415-3.94.876,1.128,2.577,1.814,8.739-2.766,9.184-1.526c.394,1.1-5.622,3.652-7.472,5.967Z" transform="translate(-91.85 -107.447)" fill="#ffc99c"/>
    <path id="Path_710" data-name="Path 710" d="M174.927,294.773s-8.287,2.93-9.408,3.675c-1.716,1.141-8.378,14.646-7.673,16.588,1.364,3.761,12.7,5.54,12.7,5.54h14.371l2.3-17.942s12.992.231,14.33.014c3.164-.516,11.954-12.165,11.954-12.165s-2.013-2.494-2.873-2.316c0,0-9.509,9.238-10.88,9.408s-21.458-2.761-22.594-2.786-2.217-.017-2.217-.017" transform="translate(-60.226 -109.984)" fill="#300b55"/>
    <path id="Path_711" data-name="Path 711" d="M165.955,304.418a4.02,4.02,0,0,0-.437.236c-1.716,1.141-8.378,14.646-7.673,16.588.694,1.915,3.971,3.315,7.022,4.229l1.048-2.144s-6.316-3.528-5.907-4.7c.362-1.04,4.647-11.3,5.946-14.2" transform="translate(-60.226 -116.19)" fill="#550b5e"/>
    <path id="Path_712" data-name="Path 712" d="M187.147,297.553a2.318,2.318,0,1,1-2.287-1.943,2.136,2.136,0,0,1,2.287,1.943" transform="translate(-69.684 -112.828)" fill="#d89a71"/>
    <path id="Path_713" data-name="Path 713" d="M189.083,281.375a1.221,1.221,0,0,0-.814,0v-.012a7.843,7.843,0,0,0-15.686,0v.012a1.219,1.219,0,0,0-.813,0,1.628,1.628,0,0,0,1.108,3.017,1.159,1.159,0,0,0,.263-.139,7.836,7.836,0,0,0,14.569,0,1.177,1.177,0,0,0,.263.139,1.628,1.628,0,0,0,1.108-3.017" transform="translate(-65.24 -104.395)" fill="#ffc99c"/>
    <path id="Path_714" data-name="Path 714" d="M183.427,290.964a9.952,9.952,0,0,1-9.952-9.952c0-.272.019-.54.041-.807a7.806,7.806,0,0,0-.931,3.706v.012a1.221,1.221,0,0,0-.814,0,1.629,1.629,0,0,0,1.108,3.017,1.179,1.179,0,0,0,.263-.14,7.836,7.836,0,0,0,10.76,4.135c-.159.007-.315.024-.476.024" transform="translate(-65.241 -106.949)" fill="#eab186"/>
    <path id="Path_715" data-name="Path 715" d="M176.606,276.879s1.074,2.078,5.991,1.909,5.483,1.428,5.539,3.1a1.505,1.505,0,0,1,1.427-1.2,8.072,8.072,0,0,0-3.134-7.291,8.243,8.243,0,0,0-10.5.523s-4.316,1.043-3.676,6.768a1.757,1.757,0,0,1,1.585.87s.169-3.366,2.769-4.678" transform="translate(-65.72 -103.708)" fill="#062f71"/>
    <path id="Path_716" data-name="Path 716" d="M190.1,315.8H166.009a1.282,1.282,0,0,0-.611.152,1.3,1.3,0,0,0-.684,1.143v12.737a1.3,1.3,0,0,0,.684,1.143,1.281,1.281,0,0,0,.611.152H190.1a1.293,1.293,0,0,0,1.295-1.295V317.094A1.294,1.294,0,0,0,190.1,315.8" transform="translate(-62.868 -120.534)" fill="#d1dbdb"/>
    <path id="Path_717" data-name="Path 717" d="M191,342.148H165.114a.386.386,0,0,1-.195-.053.418.418,0,0,1-.205-.364V341a.423.423,0,0,1,.117-.294.391.391,0,0,1,.283-.122H191a.391.391,0,0,1,.283.122.423.423,0,0,1,.117.294v.729a.421.421,0,0,1-.092.265.393.393,0,0,1-.309.151" transform="translate(-62.868 -129.995)" fill="#adbee9"/>
    <path id="Path_718" data-name="Path 718" d="M187.25,326.616a2.554,2.554,0,1,1-2.554-2.554,2.555,2.555,0,0,1,2.554,2.554" transform="translate(-69.52 -123.688)" fill="#fff"/>
    <path id="Path_719" data-name="Path 719" d="M186.272,358.368a3.962,3.962,0,0,1,3.961,1.8c1.832,2.367,4.4,2.367,4.551,1.128s-2.564-5.6-3.494-6.792-1.976-2.547-2.731-1.984a4.216,4.216,0,0,1-2.276.459s.937,1.766-.011,5.39" transform="translate(-71.096 -134.499)" fill="#300b55"/>
    <path id="Path_720" data-name="Path 720" d="M183.577,278.991a6.679,6.679,0,0,1-5.756-2.074,8.293,8.293,0,0,0-3.734,1.815,11.572,11.572,0,0,1,1.392-3.2c-1.085.45-3.739,2.031-3.227,6.61a1.754,1.754,0,0,1,1.584.87s.17-3.366,2.77-4.678c0,0,1.074,2.078,5.991,1.909s5.483,1.428,5.539,3.1c.329-2.5-.826-4.773-4.559-4.358" transform="translate(-65.72 -105.167)" fill="#061d38"/>
    <path id="Path_721" data-name="Path 721" d="M219.694,303.516c3.165-.516,11.954-12.165,11.954-12.165s-.347-.429-.812-.916c-2.946,3.357-10.277,11.626-11.205,11.858-1.165.292-14.04-.561-14.04-.561l-.227,1.771s12.993.231,14.33.014" transform="translate(-78.383 -110.853)" fill="#550b5e"/>
    <path id="Path_722" data-name="Path 722" d="M190.233,362.546c1.832,2.368,4.4,2.368,4.551,1.128a1.851,1.851,0,0,0-.087-.657,3.178,3.178,0,0,1-1.333,0c-1.4-.3-1.915-2.363-3.383-3.388a9.084,9.084,0,0,0-3.33-1.011,12.92,12.92,0,0,1-.379,2.126,3.962,3.962,0,0,1,3.961,1.8" transform="translate(-71.096 -136.878)" fill="#550b5e"/>
    <path id="Path_723" data-name="Path 723" d="M232.677,261.165a27.447,27.447,0,0,1,9.4,10.349s8-12.762,16.818-15.9l-2.287-3.043s-7.595,4.573-14.127,15.961c0,0-2.614-6.487-7.268-10.326Z" transform="translate(-88.808 -96.4)" fill="#9d0d71"/>
    <path id="Path_724" data-name="Path 724" d="M46.767,326.156l4.4,13.216c0,1.2,2.332,2.179,5.209,2.179s5.209-.976,5.209-2.179l4.4-13.216Z" transform="translate(-17.85 -124.487)" fill="#ffbeeb"/>
    <path id="Path_725" data-name="Path 725" d="M65.993,324.811c0,1.2-4.3,2.179-9.614,2.179s-9.614-.976-9.614-2.179,4.3-2.179,9.614-2.179,9.614.976,9.614,2.179" transform="translate(-17.85 -123.142)" fill="#d277b6"/>
    <path id="Path_726" data-name="Path 726" d="M48.852,327.245a25.853,25.853,0,0,0,8.324,1.089,25.846,25.846,0,0,0,8.324-1.089,25.845,25.845,0,0,0-8.324-1.089,25.852,25.852,0,0,0-8.324,1.089" transform="translate(-18.646 -124.487)" fill="#fff"/>
    <path id="Path_727" data-name="Path 727" d="M49.4,340.681a5.459,5.459,0,0,1-1.177-10.788l.266,1.206a4.223,4.223,0,0,0,1.823,8.247l.266,1.206a5.47,5.47,0,0,1-1.179.129" transform="translate(-16.773 -125.914)" fill="#ffbeeb"/>
    <path id="Path_728" data-name="Path 728" d="M58.822,300.341c.076-.137-.117-.3-.225-.174a3.909,3.909,0,0,0-.712,3.225,18.878,18.878,0,0,0,.9,2.927,6.473,6.473,0,0,1,.142,3.72.273.273,0,0,0,.5.209c2.1-3.1-2.46-6.583-.6-9.907" transform="translate(-22.066 -114.55)" fill="#fff"/>
    <path id="Path_729" data-name="Path 729" d="M63.364,298.416a.219.219,0,0,0-.309-.309c-4.056,3.579,1.237,8.474-.7,12.654-.2.426.372.987.712.549,3.119-4.031-3.285-8.911.3-12.894" transform="translate(-23.466 -113.759)" fill="#fff"/>
    <path id="Path_730" data-name="Path 730" d="M68.211,308.01c-.654-2.268-1.862-4.908-.091-7,.207-.244-.126-.592-.356-.356a4.989,4.989,0,0,0-1.243,4.341,30.354,30.354,0,0,0,.8,3.262c.425,1.776-.106,2.764-.463,4.441a.389.389,0,0,0,.707.3,5.762,5.762,0,0,0,.641-4.984" transform="translate(-25.366 -114.723)" fill="#fff"/>
  </g>
</svg>
