<svg xmlns="http://www.w3.org/2000/svg" width="28.177" height="34.093" viewBox="0 0 28.177 34.093">
  <g id="technical-support" transform="translate(-44.428)">
    <path id="Path_73827" data-name="Path 73827" d="M72.6,17.7a6.952,6.952,0,0,0-7.9-6.89,2.57,2.57,0,0,0-1.054-2.268,1.4,1.4,0,0,0,.1-.52V4.191a2,2,0,0,0-2.109-2,.386.386,0,0,1-.427-.294A2.2,2.2,0,0,0,58.754,0H57.386a.5.5,0,1,0,0,1h1.368c1.17,0,1.368.517,1.48,1.092a1.389,1.389,0,0,0,1.484,1.1,1,1,0,0,1,1.034,1V8.025c0,.785-1.636.384-1.636-.823a.589.589,0,0,0-1.108-.278A2.846,2.846,0,0,1,57.5,8.431H51.778a.913.913,0,0,1-.91-.91V3.847A2.852,2.852,0,0,1,53.717,1h1.339a.5.5,0,1,0,0-1H53.717a3.852,3.852,0,0,0-3.847,3.847V7.521a1.9,1.9,0,0,0,.539,1.327,2.562,2.562,0,0,0-.764,1.772,2.484,2.484,0,0,0,2.265,2.326,5.182,5.182,0,0,0,2.14,3.628v1.286c-.029.016-1.012.394-1.043.406H50.086a1.847,1.847,0,0,0-1.845,1.845v0l-.895.347-.01,0a4.923,4.923,0,0,0-2.909,4.494v7.769a1.367,1.367,0,0,0,1.366,1.366h22.83a1.367,1.367,0,0,0,1.366-1.366V29.755a.5.5,0,1,0-1,0v2.972a.367.367,0,0,1-.367.367H67.2a1.552,1.552,0,0,0,.1-.553v-.78a.726.726,0,0,0-.724-.726h-.584a1.824,1.824,0,0,0,.183-.791V24.636a6.9,6.9,0,0,0,2.662-.75,3.851,3.851,0,0,1,.153,1.073v2.466a.5.5,0,1,0,1,0V24.959a4.856,4.856,0,0,0-.277-1.611A6.932,6.932,0,0,0,72.6,17.7ZM51.871,11.927a1.466,1.466,0,0,1-1.229-1.307,1.6,1.6,0,0,1,.685-1.244,2.1,2.1,0,0,0,.544.054Zm10.617-2.5a1.454,1.454,0,0,0,.473-.136,1.494,1.494,0,0,1,.666,1.759,6.864,6.864,0,0,0-1.139.46ZM52.87,12.33V9.43H57.5a3.861,3.861,0,0,0,2.845-1.257,2.241,2.241,0,0,0,1.135,1.079l.013.006V12.13a6.961,6.961,0,0,0-2.641,4.126A4.324,4.324,0,0,1,52.87,12.33Zm5.85,5.937H54.972a.981.981,0,0,0,.076-.392v-.742a5.594,5.594,0,0,0,3.658.23A6.961,6.961,0,0,0,58.72,18.267Zm-9.48,1.845a.847.847,0,0,1,.846-.846h8.788a6.953,6.953,0,0,0,6.3,5.374v5.6a.854.854,0,0,1-.547.791H49.787a.853.853,0,0,1-.547-.791Zm15.132-3.121.317,1.182a.755.755,0,0,0,.532.532l1.182.317a.755.755,0,0,0,.727-.195l1.782-1.782a2.8,2.8,0,0,1-4.853,2.089h0a2.805,2.805,0,0,1,2.324-4.687l-1.817,1.817a.755.755,0,0,0-.195.727Zm-.076,3.58-2.03,2.03a5.956,5.956,0,0,1-1.512-1.514l2.03-2.03.014.024a3.827,3.827,0,0,0,1.5,1.491Zm-17.18,11.19v.78a1.554,1.554,0,0,0,.1.553H45.794a.367.367,0,0,1-.367-.367V24.959a3.961,3.961,0,0,1,2.286-3.568l.529-.2v9.059a1.825,1.825,0,0,0,.183.791H47.84a.726.726,0,0,0-.724.726Zm19.187.273v.508a.549.549,0,0,1-.543.553h-17.1a.549.549,0,0,1-.542-.553v-.508Zm-3.139-8.919,2.163-2.163a3.8,3.8,0,0,0,4.508-4.5.8.8,0,0,0-1.341-.4l-1.97,1.97-.908-.243-.243-.908,2-2a.8.8,0,0,0-.386-1.338,3.8,3.8,0,0,0-4.578,4.486L60.24,20.187a5.954,5.954,0,1,1,2.924,2.928Z" fill="#fff"/>
    <path id="Path_73828" data-name="Path 73828" d="M211.934,378.789h1.524a.5.5,0,1,0,0-1h-1.524a.5.5,0,0,0,0,1Z" transform="translate(-155.886 -352.634)" fill="#fff"/>
  </g>
</svg>
