<svg xmlns="http://www.w3.org/2000/svg" width="21.094" height="22.5" viewBox="0 0 21.094 22.5">
  <g id="download_2_" data-name="download (2)" transform="translate(-16)">
    <g id="Group_9961" data-name="Group 9961" transform="translate(20.922)">
      <g id="Group_9960" data-name="Group 9960">
        <path id="Path_81277" data-name="Path 81277" d="M139.185,10.256a.7.7,0,0,0-.64-.412h-2.812V.7a.7.7,0,0,0-.7-.7h-2.812a.7.7,0,0,0-.7.7V9.844H128.7a.7.7,0,0,0-.529,1.166l4.922,5.625a.7.7,0,0,0,1.057,0l4.922-5.625A.7.7,0,0,0,139.185,10.256Z" transform="translate(-127.998)"/>
      </g>
    </g>
    <g id="Group_9963" data-name="Group 9963" transform="translate(16 15.469)">
      <g id="Group_9962" data-name="Group 9962">
        <path id="Path_81278" data-name="Path 81278" d="M34.281,352v4.219H18.813V352H16v5.625a1.406,1.406,0,0,0,1.406,1.406H35.688a1.4,1.4,0,0,0,1.406-1.406V352Z" transform="translate(-16 -352)"/>
      </g>
    </g>
  </g>
</svg>
