<svg xmlns="http://www.w3.org/2000/svg" width="53.175" height="47.169" viewBox="0 0 53.175 47.169">
  <g id="Chat_feedback" transform="translate(0)">
    <path id="path1983" d="M36.9,10.947v3.566h5.346a3.523,3.523,0,0,1,3.566,3.57v10.7a3.52,3.52,0,0,1-3.566,3.566h-1.78a1.783,1.783,0,0,0-1.79,1.79V36.96l-4.078-4.082a1.783,1.783,0,0,0-1.264-.526H20.85a3.511,3.511,0,0,1-3.086-1.776h-.8l-2.083,2.083a7.136,7.136,0,0,0,5.966,3.26H32.591l6.61,6.607a1.783,1.783,0,0,0,3.041-1.261V35.918a7.157,7.157,0,0,0,7.133-7.133v-10.7a7.16,7.16,0,0,0-7.133-7.136Z" transform="translate(3.8 4.125)" fill="#fff"/>
    <g id="feedback" transform="translate(0 0)">
      <path id="Path_81207" data-name="Path 81207" d="M322.814,2.78,320.825.792a.994.994,0,0,0-1.4,0h0L307.49,12.721a1,1,0,0,0-.291.7v1.988a.994.994,0,0,0,.994.994h1.988a.994.994,0,0,0,.7-.291l11.93-11.93a.994.994,0,0,0,0-1.405h0Zm0,0" transform="translate(-283.34 -0.5)" fill="#fff"/>
      <path id="Path_81208" data-name="Path 81208" d="M26.842,65.617H24.854a2.986,2.986,0,0,1-2.983-2.982V60.646a2.964,2.964,0,0,1,.874-2.109L29.584,51.7H4.971A4.976,4.976,0,0,0,0,56.669V74.564a4.976,4.976,0,0,0,4.971,4.971h6.55V84.5a.994.994,0,0,0,1.591.8L20.8,79.534H32.807a4.976,4.976,0,0,0,4.971-4.971V55.916l-8.827,8.827a2.964,2.964,0,0,1-2.109.874ZM6.96,57.664H16.9a.994.994,0,0,1,0,1.988H6.96a.994.994,0,1,1,0-1.988Zm0,5.965H16.9a.994.994,0,0,1,0,1.988H6.96a.994.994,0,0,1,0-1.988Zm24.853,6.959a.994.994,0,0,1-.994.994H6.96a.994.994,0,0,1,0-1.988H30.819A.994.994,0,0,1,31.813,70.587Zm0,0" transform="translate(-0.001 -47.722)" fill="#fff"/>
    </g>
  </g>
</svg>
