<svg id="Comment" xmlns="http://www.w3.org/2000/svg" width="15.567" height="15.567" viewBox="0 0 15.567 15.567">
  <path id="Path_73960" data-name="Path 73960" d="M12.973,12.973H10.378a.649.649,0,1,1,0-1.3h2.595a1.3,1.3,0,0,0,1.3-1.3V2.595a1.3,1.3,0,0,0-1.3-1.3H2.595a1.3,1.3,0,0,0-1.3,1.3v7.784a1.3,1.3,0,0,0,1.3,1.3H5.189a.649.649,0,0,1,0,1.3H2.595A2.6,2.6,0,0,1,0,10.378V2.595A2.6,2.6,0,0,1,2.595,0H12.973a2.6,2.6,0,0,1,2.595,2.595v7.784A2.6,2.6,0,0,1,12.973,12.973Z" fill="#9d0e71"/>
  <path id="Path_73961" data-name="Path 73961" d="M9.54,17.324a.589.589,0,0,1-.454-.195L6.492,14.535a.642.642,0,0,1,.908-.908L9.54,15.767l2.141-2.141a.642.642,0,1,1,.908.908L9.995,17.13A.589.589,0,0,1,9.54,17.324ZM13.432,6.3H5.649A.613.613,0,0,1,5,5.649.613.613,0,0,1,5.649,5h7.784a.613.613,0,0,1,.649.649A.613.613,0,0,1,13.432,6.3ZM10.189,8.892H5.649a.649.649,0,0,1,0-1.3h4.54a.649.649,0,1,1,0,1.3Zm1.946,2.595H5.649a.649.649,0,0,1,0-1.3h6.486a.649.649,0,1,1,0,1.3Z" transform="translate(-1.757 -1.757)" fill="#9d0e71"/>
</svg>
