<svg xmlns="http://www.w3.org/2000/svg" width="15.48" height="17.2" viewBox="0 0 15.48 17.2">
  <path id="Date" d="M11,0a.612.612,0,0,1,.568.631h0v.89c2.588.251,3.911,1.681,3.911,4.252h0v7.113c0,2.86-1.63,4.313-4.838,4.313h-5.8C1.63,17.2,0,15.747,0,12.887H0V5.774A3.906,3.906,0,0,1,1.78,2.123h0l.084-.048A.589.589,0,0,1,2.41,2.1a.613.613,0,0,1-.062,1.088A2.7,2.7,0,0,0,1.182,5.774h0V6H12.092a.6.6,0,0,1,0,1.2H1.182v5.682c0,2.183,1.062,3.088,3.657,3.1h5.8c2.558,0,3.649-.928,3.649-3.111h0V5.767a2.67,2.67,0,0,0-2.722-3.043h0V3.3a.6.6,0,0,1-1.189-.046h0V.579l.011-.1a.6.6,0,0,1,.18-.326A.585.585,0,0,1,11,0Zm.34,12.209.1.006a.743.743,0,0,1,.435.214.767.767,0,0,1,.222.541.748.748,0,1,1-.748-.761Zm-3.586,0,.094.006a.748.748,0,1,1-.094-.006Zm-3.586,0,.1.006a.743.743,0,0,1,.435.214.767.767,0,0,1,.222.541.748.748,0,1,1-.748-.761Zm7.172-3.081.1.006a.743.743,0,0,1,.435.214.767.767,0,0,1,.222.541.748.748,0,1,1-.748-.761Zm-3.586,0,.094.006a.748.748,0,1,1-.094-.006Zm-3.586,0,.1.006a.743.743,0,0,1,.435.214.767.767,0,0,1,.222.541.748.748,0,1,1-.748-.761ZM4.506.092A.6.6,0,0,1,5.1.632h0v.829H8.48a.6.6,0,0,1,0,1.2h-3.4v.6a.606.606,0,0,1-.176.428.586.586,0,0,1-.423.173h0L4.4,3.857a.6.6,0,0,1-.489-.6h0V.632l.017-.09A.6.6,0,0,1,4.506.092Z" fill="#9d0e71"/>
</svg>
