<svg xmlns="http://www.w3.org/2000/svg" width="9.885" height="10.983" viewBox="0 0 9.885 10.983">
  <path id="Date" d="M7.024,0a.391.391,0,0,1,.363.4h0V.972a2.461,2.461,0,0,1,2.5,2.715h0V8.229c0,1.826-1.041,2.754-3.09,2.754H3.09C1.041,10.983,0,10.055,0,8.229H0V3.687A2.494,2.494,0,0,1,1.137,1.356h0l.054-.031a.376.376,0,0,1,.349.016.392.392,0,0,1-.039.695A1.726,1.726,0,0,0,.754,3.687h0v.146H7.722a.384.384,0,0,1,0,.767H.754V8.229c0,1.394.678,1.972,2.335,1.982H6.8c1.633,0,2.33-.593,2.33-1.987h0V3.682A1.7,1.7,0,0,0,7.387,1.739h0v.369a.381.381,0,0,1-.759-.029h0V.37L6.635.309A.385.385,0,0,1,6.75.1.373.373,0,0,1,7.024,0Zm.217,7.8.061,0a.474.474,0,0,1,.278.137.49.49,0,0,1,.142.345A.478.478,0,1,1,7.244,7.8Zm-2.29,0,.06,0a.477.477,0,1,1-.06,0Zm-2.29,0,.061,0A.474.474,0,0,1,3,7.937a.49.49,0,0,1,.142.345A.478.478,0,1,1,2.665,7.8ZM7.242,5.829l.061,0a.474.474,0,0,1,.278.137.49.49,0,0,1,.142.345.478.478,0,1,1-.478-.486Zm-2.29,0,.06,0a.478.478,0,1,1-.06,0Zm-2.29,0,.061,0A.474.474,0,0,1,3,5.97a.49.49,0,0,1,.142.345.478.478,0,1,1-.478-.486ZM2.877.058A.384.384,0,0,1,3.257.4h0V.933H5.415a.384.384,0,0,1,0,.767H3.247v.384a.387.387,0,0,1-.112.273.374.374,0,0,1-.27.111h0L2.81,2.463A.382.382,0,0,1,2.5,2.079h0V.4L2.508.346A.383.383,0,0,1,2.877.058Z" transform="translate(0)" fill="#300b55"/>
</svg>
