<svg xmlns="http://www.w3.org/2000/svg" width="35" height="35" viewBox="0 0 35 35">
    <g id="Image_Gallery_active" data-name="Image Gallery_active" transform="translate(-195 -370)">
        <g id="Group_9544" data-name="Group 9544" transform="translate(197 374)">
            <g id="Group_8147" data-name="Group 8147" transform="translate(0 0)">
                <path id="Path_73956" data-name="Path 73956"
                    d="M177.107,159.668a3.118,3.118,0,1,0,3.118,3.118A3.118,3.118,0,0,0,177.107,159.668Zm0,4.752a1.633,1.633,0,0,1,0-3.267h0a1.633,1.633,0,1,1,0,3.267Z"
                    transform="translate(-161.626 -150.211)" fill="#fff" />
                <path id="Path_73957" data-name="Path 73957"
                    d="M27.917,28.905,7.648,26.6a2.784,2.784,0,0,0-2.19.631,2.821,2.821,0,0,0-1.077,1.93L4.01,32.209H2.859A2.983,2.983,0,0,0,0,35.29V50.473a2.821,2.821,0,0,0,2.746,2.895H23.24a3.047,3.047,0,0,0,3.118-2.9v-.594a3.712,3.712,0,0,0,1.411-.594,3.081,3.081,0,0,0,1.077-2l1.708-15.072A3.007,3.007,0,0,0,27.917,28.905ZM24.873,50.473a1.563,1.563,0,0,1-1.633,1.411H2.859a1.336,1.336,0,0,1-1.375-1.3q0-.057,0-.114V47.726L7.24,43.494a1.782,1.782,0,0,1,2.3.111l4.046,3.564a3.49,3.49,0,0,0,2.19.817A3.378,3.378,0,0,0,17.56,47.5l7.313-4.232v7.2Zm0-8.947L16.78,46.241a1.893,1.893,0,0,1-2.19-.186l-4.083-3.6a3.3,3.3,0,0,0-4.121-.149l-4.9,3.564V35.29a1.5,1.5,0,0,1,1.374-1.6H23.24a1.708,1.708,0,0,1,1.633,1.6v6.237Zm4.2-9.518v.015L27.323,47.1a1.262,1.262,0,0,1-.483,1c-.149.149-.483.223-.483.3V35.29a3.193,3.193,0,0,0-3.118-3.081H5.5l.334-2.9a1.708,1.708,0,0,1,.557-.965,1.708,1.708,0,0,1,1.114-.3L27.732,30.39A1.485,1.485,0,0,1,29.069,32.009Z"
                    transform="translate(0 -26.576)" fill="#fff" />
            </g>
        </g>
        <rect id="Rectangle_8528" data-name="Rectangle 8528" width="35" height="35" transform="translate(195 370)"
            fill="none" />
    </g>
</svg>