<svg xmlns="http://www.w3.org/2000/svg" width="11.749" height="9.399" viewBox="0 0 11.749 9.399">
  <g id="_x30_9_camera_photography" transform="translate(-1 -4)">
    <g id="Group_8042" data-name="Group 8042" transform="translate(1 4)">
      <path id="Path_73920" data-name="Path 73920" d="M12.958,13a1.958,1.958,0,1,0,1.958,1.958A1.96,1.96,0,0,0,12.958,13Zm1.175,2.35a.392.392,0,0,1-.392-.392.784.784,0,0,0-.783-.783.392.392,0,0,1,0-.783,1.568,1.568,0,0,1,1.567,1.567A.392.392,0,0,1,14.133,15.35Z" transform="translate(-7.084 -9.475)" fill="#fff"/>
      <g id="Group_8041" data-name="Group 8041">
        <path id="Path_73921" data-name="Path 73921" d="M14.8,5.175,14.582,4.3A.392.392,0,0,0,14.2,4H11.069a.392.392,0,0,0-.38.3l-.219.878Z" transform="translate(-6.761 -4)" fill="#fff"/>
        <path id="Path_73922" data-name="Path 73922" d="M11.574,8h-9.4A1.176,1.176,0,0,0,1,9.175v5.483a1.176,1.176,0,0,0,1.175,1.175h9.4a1.176,1.176,0,0,0,1.175-1.175V9.175A1.176,1.176,0,0,0,11.574,8ZM2.958,10.35a.392.392,0,1,1,.392-.392A.392.392,0,0,1,2.958,10.35Zm3.916,4.308a2.741,2.741,0,1,1,2.741-2.741A2.745,2.745,0,0,1,6.875,14.658Z" transform="translate(-1 -6.433)" fill="#fff"/>
      </g>
    </g>
  </g>
</svg>
