<svg xmlns="http://www.w3.org/2000/svg" width="16.401" height="16.271" viewBox="0 0 16.401 16.271">
  <path id="Like__Active" data-name="Like _Active" d="M16.982,9a1.858,1.858,0,0,0-.055-1.7c-.493-.93-1.532-1.259-2.9-.93-.109.055-.274.055-.438.109a9.607,9.607,0,0,1-1.368.328,5.061,5.061,0,0,1,0-1.861c.383-2.737.164-3.5-1.095-3.667s-2.08.93-3.174,4.16a7.573,7.573,0,0,1-2.08,2.737c-.055,0-.109.109-.164.109H1.547c-.274,0-.547,0-.547.274v8.21c0,.274.274.766.547.766H13.369a3.3,3.3,0,0,0,2.737-1.149,2.928,2.928,0,0,0,.6-1.861,2.343,2.343,0,0,0,.164-2.572A2.555,2.555,0,0,0,16.982,9ZM3.572,15.462a.766.766,0,0,1,0-1.532.748.748,0,0,1,.766.766A.783.783,0,0,1,3.572,15.462Z" transform="translate(-1 -1.271)" fill="#9d0e71"/>
</svg>
