<svg id="Tag" xmlns="http://www.w3.org/2000/svg" width="11.136" height="11.136" viewBox="0 0 11.136 11.136">
  <path id="Path_73963" data-name="Path 73963" d="M15.305,9.271a.347.347,0,0,0-.246-.1H10.55a.348.348,0,0,0-.348.347l-.016,4.526a.347.347,0,0,0,.1.247L16.2,20.2a.347.347,0,0,0,.492,0l4.525-4.525a.348.348,0,0,0,0-.492Zm1.143,10.194L10.883,13.9,10.9,9.865h4.018l5.566,5.566Z" transform="translate(-10.186 -9.169)" fill="#9d0e71"/>
  <circle id="Ellipse_88" data-name="Ellipse 88" cx="0.908" cy="0.908" r="0.908" transform="translate(2.633 2.633)" fill="#9d0e71"/>
</svg>
