<svg id="_36_Upload_foto" data-name="36 Upload foto" xmlns="http://www.w3.org/2000/svg" width="28.8" height="24" viewBox="0 0 28.8 24">
  <path id="Path_81183" data-name="Path 81183" d="M17.384,24.28H4.88V19.606l2.834-3.267A1.5,1.5,0,0,1,10,16.375l2.44,3.006,4.622-5.6a1.5,1.5,0,0,1,2.294,0l3.332,4.034a7.2,7.2,0,0,0-5.3,6.463ZM12.651,10.608a1.92,1.92,0,1,0,1.92,1.92A1.92,1.92,0,0,0,12.651,10.608ZM17.384,25.24H4.4a.48.48,0,0,1-.48-.48V9.4a.48.48,0,0,1,.48-.48H24.56a.48.48,0,0,1,.48.48v8.184a7.14,7.14,0,0,1,1.92.4V8.44A1.442,1.442,0,0,0,25.52,7H3.44A1.442,1.442,0,0,0,2,8.44V25.72a1.442,1.442,0,0,0,1.44,1.44H17.78a7.14,7.14,0,0,1-.4-1.92Zm7.176-6.72a6.24,6.24,0,1,0,6.24,6.24,6.24,6.24,0,0,0-6.24-6.24Zm2.4,6.24H26V28.6a.48.48,0,0,1-.48.48H23.6a.48.48,0,0,1-.48-.48V24.748l-.954.012a.481.481,0,0,1-.4-.759l2.4-3.36a.5.5,0,0,1,.781,0l2.4,3.36a.483.483,0,0,1-.391.759Z" transform="translate(-2 -7)"/>
</svg>
