<svg xmlns="http://www.w3.org/2000/svg" width="18.999" height="11.873" viewBox="0 0 18.999 11.873">
  <g id="View" transform="translate(-15.975 -106)">
    <g id="XMLID_567_" transform="translate(15.975 106)">
      <path id="XMLID_105_" d="M25.475,117.873a8.767,8.767,0,0,1-3.72-.891,14.125,14.125,0,0,1-2.953-1.908,18.054,18.054,0,0,1-2.7-2.759.629.629,0,0,1,0-.76,18.054,18.054,0,0,1,2.7-2.759,14.125,14.125,0,0,1,2.953-1.908,8.767,8.767,0,0,1,3.72-.89,8.767,8.767,0,0,1,3.72.89,14.125,14.125,0,0,1,2.953,1.908,17.829,17.829,0,0,1,2.7,2.759.629.629,0,0,1,0,.76,18.053,18.053,0,0,1-2.7,2.759,14.125,14.125,0,0,1-2.953,1.908A8.767,8.767,0,0,1,25.475,117.873Zm-8.05-5.937c.993,1.175,4.274,4.67,8.05,4.67s7.057-3.495,8.05-4.67c-.993-1.175-4.274-4.67-8.05-4.67S18.418,110.761,17.425,111.937Z" transform="translate(-15.975 -106)" fill="#9d0e71"/>
    </g>
    <g id="XMLID_568_" transform="translate(22.625 109.087)">
      <path id="XMLID_102_" d="M186.85,189.7a2.85,2.85,0,1,1,2.85-2.85A2.853,2.853,0,0,1,186.85,189.7Zm0-4.433a1.583,1.583,0,1,0,1.583,1.583A1.583,1.583,0,0,0,186.85,185.266Z" transform="translate(-184 -184)" fill="#9d0e71"/>
    </g>
  </g>
</svg>
